<?xml version="1.0" standalone="no"?>
<!DOCTYPE svg PUBLIC "-//W3C//DTD SVG 20010904//EN"
 "http://www.w3.org/TR/2001/REC-SVG-20010904/DTD/svg10.dtd">
<svg version="1.0" xmlns="http://www.w3.org/2000/svg"
 width="440.000000pt" height="440.000000pt" viewBox="0 0 440.000000 440.000000"
 preserveAspectRatio="xMidYMid meet">

<g transform="translate(0.000000,440.000000) scale(0.100000,-0.100000)"
fill="#000000" stroke="none">
<path d="M2120 4350 l0 -50 -150 0 -150 0 0 -100 0 -100 -75 0 -75 0 0 50 0
50 -150 0 -150 0 0 -50 0 -50 -80 0 -80 0 0 50 0 50 -375 0 -375 0 0 -50 0
-50 -80 0 -80 0 0 -100 0 -100 -75 0 -75 0 0 -50 0 -50 -75 0 -75 0 0 -300 0
-300 75 0 75 0 0 -100 0 -100 -75 0 -75 0 0 -250 0 -250 75 0 75 0 0 -50 0
-50 155 0 155 0 0 -100 0 -100 -155 0 -155 0 0 -50 0 -50 -75 0 -75 0 0 -600
0 -600 380 0 380 0 0 -95 0 -95 75 0 75 0 0 -150 0 -150 85 0 85 0 0 -60 0
-60 -85 0 -85 0 0 -145 0 -145 455 0 455 0 0 50 0 50 75 0 75 0 0 -50 0 -50
685 0 685 0 0 450 0 450 530 0 530 0 0 255 0 255 -150 0 -150 0 0 295 0 295
-80 0 -80 0 0 50 0 50 -150 0 -150 0 0 750 0 750 75 0 75 0 0 250 0 250 -75 0
-75 0 0 100 0 100 -75 0 -75 0 0 50 0 50 -150 0 -150 0 0 -50 0 -50 -80 0 -80
0 0 50 0 50 -150 0 -150 0 0 -50 0 -50 -75 0 -75 0 0 50 0 50 -230 0 -230 0 0
-50z m158 -802 l3 -48 150 0 149 0 0 50 0 50 75 0 75 0 0 -50 0 -50 -75 0 -75
0 0 -50 0 -50 -75 0 -75 0 0 -100 0 -100 150 0 150 0 0 50 0 50 305 0 305 0 0
150 0 150 75 0 75 0 0 -598 c0 -330 -3 -667 -7 -750 l-6 -152 -74 0 -73 0 0
-50 0 -50 -1280 0 -1280 0 0 50 0 49 -77 3 -78 3 -3 298 -2 297 150 0 150 0 0
350 0 350 75 0 75 0 0 -50 0 -50 380 0 380 0 0 -50 0 -51 153 3 152 3 0 95 0
95 -77 3 -78 3 0 49 0 50 -75 0 -75 0 0 50 0 50 228 -2 227 -3 3 -47z m-1978
-698 l0 -50 75 0 75 0 0 -50 0 -50 -75 0 -75 0 0 -50 0 -50 75 0 75 0 0 -50 0
-50 -150 0 -150 0 0 200 0 200 75 0 75 0 0 -50z m1670 -1250 l0 -100 -75 0
-75 0 0 -200 0 -200 -150 0 -150 0 0 250 0 250 75 0 75 0 0 50 0 50 150 0 150
0 0 -100z m610 50 l0 -50 75 0 75 0 0 -250 0 -250 -150 0 -150 0 0 200 0 200
-75 0 -75 0 0 100 0 100 150 0 150 0 0 -50z m-1500 -250 l0 -110 -90 0 -90 0
0 110 0 110 90 0 90 0 0 -110z m-630 50 l0 -50 80 0 80 0 0 50 0 50 75 0 75 0
0 -150 0 -150 75 0 75 0 0 -100 0 -100 -380 0 -380 0 0 200 0 200 75 0 75 0 0
43 c0 24 3 47 7 50 3 4 37 7 75 7 l68 0 0 -50z m3190 0 l0 -50 75 0 75 0 0 50
0 50 75 0 75 0 0 -50 0 -50 80 0 80 0 0 -50 0 -50 75 0 75 0 0 -150 0 -150
-380 0 -380 0 0 50 0 50 -75 0 -75 0 0 150 0 150 75 0 75 0 0 50 0 50 75 0 75
0 0 -50z"/>
<path d="M1210 3150 l0 -50 -75 0 -75 0 0 -200 0 -200 75 0 75 0 0 -50 0 -50
305 0 305 0 0 50 0 50 75 0 75 0 0 200 0 200 -75 0 -75 0 0 50 0 50 -305 0
-305 0 0 -50z m310 -100 l0 -50 -75 0 -75 0 0 -100 0 -100 75 0 75 0 0 -50 0
-50 -155 0 -155 0 0 200 0 200 155 0 155 0 0 -50z m300 -100 l0 -50 -75 0 -75
0 0 50 0 50 75 0 75 0 0 -50z"/>
<path d="M2730 3150 l0 -50 -75 0 -75 0 0 -200 0 -200 75 0 75 0 0 -50 0 -50
230 0 230 0 0 50 0 50 75 0 75 0 0 200 0 200 -75 0 -75 0 0 50 0 50 -230 0
-230 0 0 -50z m155 -100 l0 -45 -77 -3 -78 -3 0 51 0 51 78 -3 77 -3 0 -45z
m305 -100 l0 -50 -80 0 -80 0 0 50 0 50 80 0 80 0 0 -50z m-305 -200 l0 -45
-77 -3 -78 -3 0 51 0 51 78 -3 77 -3 0 -45z"/>
<path d="M2120 2850 l0 -49 78 -3 77 -3 0 -45 0 -45 -77 -3 -78 -3 0 -49 0
-50 80 0 80 0 0 50 0 50 75 0 75 0 0 50 0 50 -75 0 -75 0 0 50 0 50 -80 0 -80
0 0 -50z"/>
<path d="M1510 2350 l0 -150 33 -1 c17 -1 51 -1 75 1 l42 2 0 -50 c0 -49 1
-50 33 -53 17 -2 260 -3 540 -1 l507 3 0 50 0 50 73 -2 72 -2 3 151 3 152
-691 0 -690 0 0 -150z m1220 -50 l0 -100 -530 0 -530 0 0 100 0 100 530 0 530
0 0 -100z"/>
</g>
</svg>
