<?xml version="1.0" standalone="no"?>
<!DOCTYPE svg PUBLIC "-//W3C//DTD SVG 20010904//EN"
 "http://www.w3.org/TR/2001/REC-SVG-20010904/DTD/svg10.dtd">
<svg version="1.0" xmlns="http://www.w3.org/2000/svg"
 width="290.000000pt" height="440.000000pt" viewBox="0 0 290.000000 440.000000"
 preserveAspectRatio="xMidYMid meet">

<g transform="translate(0.000000,440.000000) scale(0.100000,-0.100000)"
fill="#000000" stroke="none">
<path d="M1400 4350 l0 -50 -100 0 -100 0 0 -100 0 -100 -50 0 -50 0 0 50 0
50 -100 0 -100 0 0 -50 0 -50 -50 0 -50 0 0 50 0 50 -250 0 -250 0 0 -50 0
-50 -50 0 -50 0 0 -100 0 -100 -50 0 -50 0 0 -50 0 -50 -50 0 -50 0 0 -300 0
-300 50 0 50 0 0 -100 0 -100 -50 0 -50 0 0 -250 0 -250 50 0 50 0 0 -50 0
-50 100 0 100 0 0 -100 0 -100 -100 0 -100 0 0 -50 0 -50 -50 0 -50 0 0 -600
0 -600 250 0 250 0 0 -95 0 -95 50 0 50 0 0 -150 0 -150 55 0 55 0 0 -60 0
-60 -55 0 -55 0 0 -145 0 -145 300 0 300 0 0 50 0 50 50 0 50 0 0 -50 0 -50
450 0 450 0 0 450 0 450 350 0 350 0 0 255 0 255 -100 0 -100 0 0 295 0 295
-50 0 -50 0 0 50 0 50 -100 0 -100 0 0 750 0 750 50 0 50 0 0 250 0 250 -50 0
-50 0 0 100 0 100 -50 0 -50 0 0 50 0 50 -100 0 -100 0 0 -50 0 -50 -50 0 -50
0 0 50 0 50 -100 0 -100 0 0 -50 0 -50 -50 0 -50 0 0 50 0 50 -150 0 -150 0 0
-50z m100 -800 l0 -50 100 0 100 0 0 50 0 50 50 0 50 0 0 -50 0 -50 -50 0 -50
0 0 -50 0 -50 -50 0 -50 0 0 -100 0 -100 100 0 100 0 0 50 0 50 200 0 200 0 0
150 0 150 50 0 50 0 -2 -747 -3 -748 -47 -3 -47 -3 -3 -47 -3 -47 -845 0 -845
0 -3 47 -3 47 -47 3 -47 3 -3 298 -2 297 100 0 100 0 0 350 0 350 50 0 50 0 0
-50 0 -50 250 0 250 0 0 -50 0 -50 100 0 100 0 0 100 0 100 -50 0 -50 0 0 50
0 50 -50 0 -50 0 0 50 0 50 150 0 150 0 0 -50z m-1300 -700 l0 -50 50 0 50 0
0 -50 0 -50 -50 0 -50 0 0 -50 0 -50 50 0 50 0 0 -50 0 -50 -100 0 -100 0 0
200 0 200 50 0 50 0 0 -50z m1100 -1250 l0 -100 -50 0 -50 0 0 -200 0 -200
-100 0 -100 0 0 250 0 250 50 0 50 0 0 50 0 50 100 0 100 0 0 -100z m400 50
l0 -50 50 0 50 0 0 -250 0 -250 -100 0 -100 0 0 200 0 200 -50 0 -50 0 0 100
0 100 100 0 100 0 0 -50z m-990 -250 l0 -110 -60 0 -60 0 0 110 0 110 60 0 60
0 0 -110z m-410 50 l0 -50 50 0 50 0 0 50 0 50 50 0 50 0 0 -150 0 -150 50 0
50 0 0 -100 0 -100 -250 0 -250 0 0 200 0 200 50 0 50 0 0 50 0 50 50 0 50 0
0 -50z m2100 0 l0 -50 50 0 50 0 0 50 0 50 50 0 50 0 0 -50 0 -50 50 0 50 0 0
-50 0 -50 50 0 50 0 0 -150 0 -150 -250 0 -250 0 0 50 0 50 -50 0 -50 0 0 150
0 150 50 0 50 0 0 50 0 50 50 0 50 0 0 -50z"/>
<path d="M800 3150 l0 -50 -50 0 -50 0 0 -200 0 -200 50 0 50 0 0 -50 0 -50
200 0 200 0 0 50 0 50 50 0 50 0 0 200 0 200 -50 0 -50 0 0 50 0 50 -200 0
-200 0 0 -50z m200 -100 l0 -50 -50 0 -50 0 0 -100 0 -100 50 0 50 0 0 -50 0
-50 -100 0 -100 0 0 200 0 200 100 0 100 0 0 -50z m200 -100 l0 -50 -50 0 -50
0 0 50 0 50 50 0 50 0 0 -50z"/>
<path d="M1800 3150 l0 -50 -50 0 -50 0 0 -200 0 -200 50 0 50 0 0 -50 0 -50
150 0 150 0 0 50 0 50 50 0 50 0 0 200 0 200 -50 0 -50 0 0 50 0 50 -150 0
-150 0 0 -50z m100 -100 l0 -50 -50 0 -50 0 0 50 0 50 50 0 50 0 0 -50z m200
-100 l0 -50 -50 0 -50 0 0 50 0 50 50 0 50 0 0 -50z m-200 -200 l0 -50 -50 0
-50 0 0 50 0 50 50 0 50 0 0 -50z"/>
<path d="M1400 2850 l0 -50 50 0 50 0 0 -50 0 -50 -50 0 -50 0 0 -50 0 -50 50
0 50 0 0 50 0 50 50 0 50 0 0 50 0 50 -50 0 -50 0 0 50 0 50 -50 0 -50 0 0
-50z"/>
<path d="M1000 2351 l0 -150 48 -3 47 -3 3 -47 c3 -42 6 -48 25 -48 106 -2
671 1 673 3 1 1 4 22 6 47 l4 45 47 3 47 3 0 150 0 149 -450 0 -450 0 0 -149z
m800 -51 l0 -100 -350 0 -350 0 0 100 0 100 350 0 350 0 0 -100z"/>
</g>
</svg>
