<?xml version="1.0" standalone="no"?>
<!DOCTYPE svg PUBLIC "-//W3C//DTD SVG 20010904//EN"
 "http://www.w3.org/TR/2001/REC-SVG-20010904/DTD/svg10.dtd">
<svg version="1.0" xmlns="http://www.w3.org/2000/svg"
 width="225.000000pt" height="149.000000pt" viewBox="0 0 225.000000 149.000000"
 preserveAspectRatio="xMidYMid meet">

<g transform="translate(0.000000,149.000000) scale(0.100000,-0.100000)"
fill="#000000" stroke="none">
<path d="M1790 1250 l0 -50 -200 0 -200 0 0 -50 0 -50 -150 0 -150 0 0 -50 0
-50 -150 0 -150 0 0 -50 0 -50 -100 0 -100 0 0 -50 0 -50 -100 0 -100 0 0 -55
0 -55 100 0 100 0 0 -50 0 -50 100 0 100 0 0 -50 0 -50 150 0 150 0 0 -50 0
-50 150 0 150 0 0 -50 0 -50 200 0 200 0 0 -50 0 -50 230 0 230 0 0 555 0 555
-230 0 -230 0 0 -50z m-500 -505 l0 -345 -95 0 -95 0 0 50 0 50 -150 0 -150 0
0 50 0 50 -100 0 -100 0 0 50 0 50 -100 0 -100 0 0 45 0 45 100 0 100 0 0 50
0 50 100 0 100 0 0 50 0 50 150 0 150 0 0 50 0 50 95 0 95 0 0 -345z"/>
</g>
</svg>
