<?xml version="1.0" standalone="no"?>
<!DOCTYPE svg PUBLIC "-//W3C//DTD SVG 20010904//EN"
 "http://www.w3.org/TR/2001/REC-SVG-20010904/DTD/svg10.dtd">
<svg version="1.0" xmlns="http://www.w3.org/2000/svg"
 width="225.000000pt" height="149.000000pt" viewBox="0 0 225.000000 149.000000"
 preserveAspectRatio="xMidYMid meet">

<g transform="translate(0.000000,149.000000) scale(0.100000,-0.100000)"
fill="#000000" stroke="none">
<path d="M1340 1445 l0 -45 -100 0 -100 0 0 -50 0 -50 -100 0 -100 0 0 -50 0
-50 -245 0 -245 0 0 50 0 50 -225 0 -225 0 0 -555 0 -555 225 0 225 0 0 50 0
50 245 0 245 0 0 -50 0 -50 100 0 100 0 0 -50 0 -50 100 0 100 0 0 -45 0 -45
105 0 105 0 0 150 0 150 -50 0 -50 0 0 50 0 50 -100 0 -100 0 0 45 0 45 150 0
150 0 0 50 0 50 50 0 50 0 0 50 0 50 50 0 50 0 0 55 0 55 -50 0 -50 0 0 50 0
50 -50 0 -50 0 0 50 0 50 -150 0 -150 0 0 45 0 45 100 0 100 0 0 50 0 50 50 0
50 0 0 150 0 150 -105 0 -105 0 0 -45z m200 -105 l0 -140 -40 0 -40 0 0 60 0
60 -55 0 -55 0 0 80 0 80 95 0 95 0 0 -140z m-900 -595 l0 -235 -145 0 -145 0
0 235 0 235 145 0 145 0 0 -235z m900 -595 l0 -140 -95 0 -95 0 0 80 0 80 55
0 55 0 0 60 0 60 40 0 40 0 0 -140z"/>
</g>
</svg>
