<?xml version="1.0" standalone="no"?>
<!DOCTYPE svg PUBLIC "-//W3C//DTD SVG 20010904//EN"
 "http://www.w3.org/TR/2001/REC-SVG-20010904/DTD/svg10.dtd">
<svg version="1.0" xmlns="http://www.w3.org/2000/svg"
 width="147.000000pt" height="147.000000pt" viewBox="0 0 147.000000 147.000000"
 preserveAspectRatio="xMidYMid meet">
<metadata>
Created by potrace 1.16, written by Peter Selinger 2001-2019
</metadata>
<g transform="translate(0.000000,147.000000) scale(0.100000,-0.100000)"
fill="#000000" stroke="none">
<path d="M0 920 l0 -550 205 0 205 0 0 150 0 150 75 0 75 0 0 -335 0 -335 80
0 80 0 0 335 0 335 75 0 75 0 0 250 0 250 -75 0 -75 0 0 100 0 100 -75 0 -75
0 0 50 0 50 -160 0 -160 0 0 -50 0 -50 -70 0 -70 0 0 50 0 50 -55 0 -55 0 0
-550z"/>
<path d="M0 135 l0 -135 50 0 50 0 0 35 0 35 80 0 80 0 0 -35 0 -35 75 0 75 0
0 85 0 85 -75 0 -75 0 0 50 0 50 -130 0 -130 0 0 -135z"/>
</g>
</svg>
