<?xml version="1.0" standalone="no"?>
<!DOCTYPE svg PUBLIC "-//W3C//DTD SVG 20010904//EN"
 "http://www.w3.org/TR/2001/REC-SVG-20010904/DTD/svg10.dtd">
<svg version="1.0" xmlns="http://www.w3.org/2000/svg"
 width="146.000000pt" height="147.000000pt" viewBox="0 0 146.000000 147.000000"
 preserveAspectRatio="xMidYMid meet">
<metadata>
Created by potrace 1.16, written by Peter Selinger 2001-2019
</metadata>
<g transform="translate(0.000000,147.000000) scale(0.100000,-0.100000)"
fill="#000000" stroke="none">
<path d="M650 1420 l0 -50 -155 0 -155 0 0 -100 0 -100 -65 0 -65 0 0 50 0 50
-105 0 -105 0 0 -450 0 -450 175 0 175 0 0 -50 0 -50 -175 0 -175 0 0 -50 c0
-47 2 -50 25 -50 23 0 25 -3 25 -50 0 -47 -2 -50 -25 -50 -22 0 -25 -4 -25
-35 l0 -35 100 0 100 0 0 35 0 35 75 0 75 0 0 -35 0 -35 75 0 75 0 0 85 0 85
-75 0 -75 0 0 50 0 49 153 3 152 3 0 95 0 95 -77 3 -78 3 0 49 0 50 -75 0 -75
0 0 50 0 50 228 -2 227 -3 3 -47 3 -48 150 0 149 0 0 -50 0 -50 -75 0 -75 0 0
-100 0 -100 150 0 150 0 0 -50 0 -50 -75 0 -75 0 0 -85 0 -85 175 0 175 0 0
135 0 135 -100 0 -100 0 0 50 0 50 100 0 100 0 0 550 0 550 -105 0 -105 0 0
-50 0 -50 -65 0 -65 0 0 50 0 50 -235 0 -235 0 0 -50z m765 -1300 l0 -45 -77
-3 -78 -3 0 51 0 51 78 -3 77 -3 0 -45z"/>
</g>
</svg>
