<?xml version="1.0" standalone="no"?>
<!DOCTYPE svg PUBLIC "-//W3C//DTD SVG 20010904//EN"
 "http://www.w3.org/TR/2001/REC-SVG-20010904/DTD/svg10.dtd">
<svg version="1.0" xmlns="http://www.w3.org/2000/svg"
 width="360.000000pt" height="360.000000pt" viewBox="0 0 360.000000 360.000000"
 preserveAspectRatio="xMidYMid meet">

<g transform="translate(0.000000,360.000000) scale(0.100000,-0.100000)"
fill="#000000" stroke="none">
<path d="M1635 3530 c-88 -10 -216 -32 -285 -49 -69 -16 -140 -33 -159 -36
-87 -15 -276 -112 -423 -215 -121 -86 -355 -319 -441 -440 -270 -381 -364
-868 -263 -1358 88 -424 367 -827 751 -1084 234 -157 494 -245 795 -268 101
-7 155 -5 348 15 248 27 345 47 497 106 392 152 739 473 932 861 220 442 225
1030 12 1486 -111 239 -262 429 -483 605 -222 178 -401 277 -596 331 -49 13
-477 68 -512 65 -7 -1 -85 -9 -173 -19z m344 -121 c242 -28 367 -68 564 -180
103 -58 356 -266 434 -356 210 -243 337 -517 384 -828 15 -100 15 -341 0 -460
-46 -361 -202 -669 -476 -940 -177 -176 -356 -291 -580 -376 -92 -34 -133 -43
-284 -61 -326 -40 -545 -25 -782 52 -299 98 -584 306 -792 578 -156 202 -274
496 -307 762 -5 46 -10 141 -10 210 1 329 83 616 248 866 79 119 105 151 225
273 193 197 404 330 644 405 95 29 163 43 333 69 69 11 241 5 399 -14z"/>
<path d="M2170 3079 c0 -33 3 -35 75 -63 73 -28 76 -28 95 -11 11 10 20 21 20
25 0 8 -125 66 -164 76 -24 6 -26 4 -26 -27z"/>
<path d="M2460 2945 c-7 -14 -11 -27 -9 -29 2 -2 27 -21 55 -43 28 -21 74 -59
103 -85 48 -44 52 -46 81 -35 16 6 30 14 29 17 0 4 -159 134 -223 182 -22 17
-23 17 -36 -7z"/>
<path d="M2459 2396 c13 -16 92 -198 88 -202 -1 -2 -113 -21 -247 -44 -134
-23 -246 -42 -247 -44 -2 -1 8 -13 21 -25 l24 -22 243 41 c134 23 245 43 247
45 13 13 -115 265 -135 265 -3 0 0 -6 6 -14z"/>
<path d="M2963 2372 l-22 -17 39 -115 c58 -169 73 -280 66 -480 -7 -233 -37
-353 -132 -540 -154 -302 -446 -558 -754 -659 -121 -39 -202 -52 -365 -56
-245 -6 -408 26 -601 119 -110 53 -115 54 -151 42 l-38 -13 50 -31 c129 -81
329 -148 512 -173 112 -15 363 -7 463 15 238 52 442 154 615 308 249 222 397
482 450 793 32 188 19 458 -32 635 -20 71 -66 190 -73 190 -3 0 -15 -8 -27
-18z"/>
<path d="M1657 2290 c-91 -23 -174 -86 -212 -160 -49 -96 -60 -154 -59 -320 0
-170 14 -245 62 -333 30 -56 66 -92 38 -39 -37 71 -56 180 -56 316 0 212 34
321 124 404 75 69 123 86 246 86 78 0 115 -4 144 -17 l39 -17 -19 21 c-33 37
-98 60 -187 64 -45 2 -99 0 -120 -5z"/>
<path d="M2570 1558 l0 -355 -127 -76 c-212 -126 -239 -136 -458 -164 -398
-50 -603 -18 -795 124 -67 50 -71 52 -40 18 41 -44 148 -116 215 -145 163 -70
340 -83 639 -50 l204 23 204 111 203 111 3 356 2 355 -25 24 -25 23 0 -355z"/>
<path d="M1790 1545 c23 -24 27 -25 172 -25 l148 0 0 25 0 25 -172 0 -171 0
23 -25z"/>
<path d="M470 1417 c-14 -6 -26 -12 -28 -13 -1 -1 7 -27 18 -57 20 -54 22 -56
46 -45 28 13 29 28 6 84 -16 38 -19 40 -42 31z"/>
<path d="M575 1150 c-18 -20 -17 -22 41 -107 32 -48 98 -128 146 -178 l87 -90
22 22 23 22 -90 93 c-49 51 -114 130 -144 175 -30 45 -58 82 -61 83 -3 0 -14
-9 -24 -20z"/>
</g>
</svg>
