<?xml version="1.0" standalone="no"?>
<!DOCTYPE svg PUBLIC "-//W3C//DTD SVG 20010904//EN"
 "http://www.w3.org/TR/2001/REC-SVG-20010904/DTD/svg10.dtd">
<svg version="1.0" xmlns="http://www.w3.org/2000/svg"
 width="440.000000pt" height="440.000000pt" viewBox="0 0 440.000000 440.000000"
 preserveAspectRatio="xMidYMid meet">

<g transform="translate(0.000000,440.000000) scale(0.100000,-0.100000)"
fill="#000000" stroke="none">
<path d="M2660 4350 l0 -50 -115 0 -115 0 0 -100 0 -100 -60 0 -60 0 0 50 0
50 -115 0 -115 0 0 -50 0 -50 -60 0 -60 0 0 50 0 50 -285 0 -285 0 0 -50 0
-50 -60 0 -60 0 0 -100 0 -100 -55 0 -55 0 0 -50 0 -50 -60 0 -60 0 0 -300 0
-300 60 0 60 0 0 -100 0 -100 -60 0 -60 0 0 50 0 50 -60 0 -60 0 0 50 0 50
-55 0 -55 0 0 50 0 50 -175 0 -175 0 0 -50 0 -50 -55 0 -55 0 0 -50 0 -50 -60
0 -60 0 0 -50 0 -50 -55 0 -55 0 0 -50 0 -50 -60 0 -60 0 0 -800 0 -800 60 0
60 0 0 -150 0 -150 -60 0 -60 0 0 -350 0 -350 695 0 695 0 0 200 0 200 170 0
170 0 0 -150 0 -150 60 0 60 0 0 -200 0 -200 288 2 287 3 3 48 3 47 55 0 54 0
0 -50 0 -50 520 0 520 0 0 350 0 350 345 0 345 0 0 50 0 50 60 0 60 0 0 400 0
400 -60 0 -60 0 0 50 0 50 -55 0 -55 0 0 150 0 150 -60 0 -60 0 0 50 0 50
-115 0 -115 0 0 750 0 750 60 0 60 0 0 250 0 250 -60 0 -60 0 0 100 0 100 -55
0 -55 0 0 50 0 51 -117 -3 -118 -3 -3 -47 -3 -48 -55 0 -54 0 0 50 0 50 -115
0 -115 0 0 -50 0 -50 -60 0 -60 0 0 50 0 50 -170 0 -170 0 0 -50z m110 -800
l0 -50 115 0 115 0 0 50 0 50 60 0 60 0 0 -50 0 -50 -60 0 -60 0 0 -50 0 -50
-55 0 -55 0 0 -100 0 -100 115 0 115 0 0 50 0 50 230 0 230 0 0 150 0 151 58
-3 57 -3 3 -535 c2 -294 0 -631 -3 -747 l-7 -213 -59 0 -58 0 -3 -47 -3 -48
-972 -3 -973 -2 0 50 0 50 -55 0 -55 0 0 73 c0 41 -3 176 -7 300 l-6 227 116
0 117 0 0 350 0 350 60 0 60 0 0 -50 0 -50 285 0 285 0 0 -50 0 -50 -230 0
-230 0 0 -50 0 -50 120 0 120 0 0 -50 0 -50 -60 0 -60 0 0 -100 0 -100 60 0
60 0 0 -50 0 -50 -120 0 -120 0 0 -50 0 -50 235 0 235 0 0 50 0 50 55 0 55 0
0 200 0 200 -55 0 -55 0 0 50 0 50 115 0 115 0 0 100 0 100 -60 0 -60 0 0 50
0 50 -55 0 -55 0 0 50 0 50 170 0 170 0 0 -50z m-340 -600 l0 -50 -60 0 -60 0
0 50 0 50 60 0 60 0 0 -50z m-1160 -100 l0 -49 58 -3 57 -3 0 -45 0 -45 -57
-3 -58 -3 0 -49 0 -49 58 -3 57 -3 0 -45 0 -45 -112 -3 -113 -3 0 201 0 200
55 0 55 0 0 -50z m-690 -1100 l0 -50 -60 0 -60 0 0 -50 0 -50 -55 0 -55 0 0
-50 0 -50 -60 0 -60 0 0 -50 0 -50 -55 0 -55 0 0 100 0 100 55 0 55 0 0 50 0
50 60 0 60 0 0 50 0 50 115 0 115 0 0 -50z m460 0 l0 -50 -60 0 -60 0 0 -50 0
-50 -55 0 -55 0 0 -50 0 -50 -60 0 -60 0 0 -50 0 -50 -115 0 -115 0 0 50 0 50
60 0 60 0 0 50 0 50 55 0 55 0 0 50 0 50 60 0 60 0 0 50 0 50 115 0 115 0 0
-50z m1500 -150 l0 -100 -55 0 -55 0 0 -200 0 -200 -120 0 -120 0 0 250 0 250
60 0 60 0 0 50 0 50 115 0 115 0 0 -100z m460 50 l0 -50 60 0 60 0 0 -250 0
-250 -115 0 -115 0 0 200 0 200 -60 0 -60 0 0 100 0 100 115 0 115 0 0 -50z
m-1612 -202 l3 -48 55 0 54 0 0 50 0 50 60 0 60 0 0 -150 0 -150 55 0 55 0 0
-100 0 -100 -285 0 -285 0 0 200 0 200 55 0 55 0 0 50 0 51 58 -3 57 -3 3 -47z
m2422 2 l0 -50 60 0 60 0 0 50 0 50 55 0 55 0 0 -50 0 -50 60 0 60 0 0 -50 0
-50 55 0 55 0 0 -150 0 -150 -285 0 -285 0 0 50 0 50 -60 0 -60 0 0 150 0 150
60 0 60 0 0 50 0 50 55 0 55 0 0 -50z m230 -600 l0 -50 -230 0 -230 0 0 50 0
50 230 0 230 0 0 -50z"/>
<path d="M3120 3150 l0 -50 -60 0 -60 0 0 -200 0 -200 60 0 60 0 0 -50 0 -50
175 0 175 0 0 50 0 50 55 0 55 0 0 200 0 200 -55 0 -55 0 0 50 0 50 -175 0
-175 0 0 -50z m120 -100 l0 -50 -60 0 -60 0 0 50 0 50 60 0 60 0 0 -50z m220
-100 l0 -50 -55 0 -55 0 0 50 0 50 55 0 55 0 0 -50z m-220 -200 l0 -50 -60 0
-60 0 0 50 0 50 60 0 60 0 0 -50z"/>
<path d="M1850 2900 l0 -200 55 0 55 0 0 200 0 200 -55 0 -55 0 0 -200z"/>
<path d="M2660 2850 l0 -50 55 0 55 0 0 -50 0 -50 -55 0 -55 0 0 -50 0 -50 55
0 55 0 0 50 0 50 60 0 60 0 0 50 0 50 -60 0 -60 0 0 50 0 50 -55 0 -55 0 0
-50z"/>
<path d="M2190 2350 c0 -168 -6 -156 78 -151 l32 3 0 -50 c0 -47 2 -50 28 -53
15 -2 199 -3 410 -1 l382 2 0 45 c0 50 13 59 78 53 l37 -3 3 153 3 152 -526 0
-525 0 0 -150z m930 -50 l0 -100 -405 0 -405 0 0 100 0 100 405 0 405 0 0
-100z"/>
</g>
</svg>
