<?xml version="1.0" standalone="no"?>
<!DOCTYPE svg PUBLIC "-//W3C//DTD SVG 20010904//EN"
 "http://www.w3.org/TR/2001/REC-SVG-20010904/DTD/svg10.dtd">
<svg version="1.0" xmlns="http://www.w3.org/2000/svg"
 width="147.000000pt" height="146.000000pt" viewBox="0 0 147.000000 146.000000"
 preserveAspectRatio="xMidYMid meet">
<metadata>
Created by potrace 1.16, written by Peter Selinger 2001-2019
</metadata>
<g transform="translate(0.000000,146.000000) scale(0.100000,-0.100000)"
fill="#000000" stroke="none">
<path d="M0 1245 l0 -215 70 0 70 0 0 -50 0 -50 155 0 155 0 0 -100 0 -100
-155 0 -155 0 0 -50 0 -50 -70 0 -70 0 0 -315 0 -315 149 0 c123 0 150 3 155
15 8 22 146 22 146 0 0 -12 16 -15 80 -15 64 0 80 3 80 15 0 12 15 15 75 15
60 0 75 -3 75 -15 0 -12 14 -15 70 -15 63 0 70 2 70 20 0 18 7 20 85 20 78 0
85 -2 85 -20 0 -19 7 -20 200 -20 l200 0 0 265 0 265 -350 0 -350 0 0 50 0 49
-77 3 -78 3 -3 298 -2 297 150 0 150 0 0 115 0 115 -455 0 -455 0 0 -215z
m300 135 l0 -50 75 0 75 0 0 -50 0 -50 -75 0 -75 0 0 -50 0 -50 75 0 75 0 0
-50 0 -50 -150 0 -150 0 0 200 0 200 75 0 75 0 0 -50z"/>
<path d="M1060 1345 l0 -115 75 0 75 0 0 -50 0 -50 130 0 130 0 0 50 0 50
-130 0 -130 0 0 115 0 115 -75 0 -75 0 0 -115z"/>
</g>
</svg>
