<?xml version="1.0" standalone="no"?>
<!DOCTYPE svg PUBLIC "-//W3C//DTD SVG 20010904//EN"
 "http://www.w3.org/TR/2001/REC-SVG-20010904/DTD/svg10.dtd">
<svg version="1.0" xmlns="http://www.w3.org/2000/svg"
 width="147.000000pt" height="147.000000pt" viewBox="0 0 147.000000 147.000000"
 preserveAspectRatio="xMidYMid meet">
<metadata>
Created by potrace 1.16, written by Peter Selinger 2001-2019
</metadata>
<g transform="translate(0.000000,147.000000) scale(0.100000,-0.100000)"
fill="#000000" stroke="none">
<path d="M0 1185 l0 -285 375 0 375 0 0 -95 0 -95 75 0 75 0 0 -150 0 -150 85
0 85 0 0 -60 0 -60 -85 0 -85 0 0 -145 0 -145 285 0 285 0 0 735 0 735 -200 0
-200 0 0 -90 0 -90 -85 0 -85 0 0 90 0 90 -70 0 -70 0 0 -135 0 -135 75 0 75
0 0 -100 0 -100 -380 0 -380 0 0 200 0 200 75 0 75 0 0 35 0 35 -150 0 -150 0
0 -285z"/>
</g>
</svg>
