<?xml version="1.0" standalone="no"?>
<!DOCTYPE svg PUBLIC "-//W3C//DTD SVG 20010904//EN"
 "http://www.w3.org/TR/2001/REC-SVG-20010904/DTD/svg10.dtd">
<svg version="1.0" xmlns="http://www.w3.org/2000/svg"
 width="147.000000pt" height="147.000000pt" viewBox="0 0 147.000000 147.000000"
 preserveAspectRatio="xMidYMid meet">
<metadata>
Created by potrace 1.16, written by Peter Selinger 2001-2019
</metadata>
<g transform="translate(0.000000,147.000000) scale(0.100000,-0.100000)"
fill="#000000" stroke="none">
<path d="M450 1220 l0 -50 -75 0 -75 0 0 -100 0 -100 -80 0 -80 0 0 -50 0 -50
-70 0 -70 0 0 -300 0 -300 70 0 70 0 0 -100 0 -100 -70 0 -70 0 0 -35 0 -35
455 0 455 0 0 235 0 235 75 0 75 0 0 -50 0 -50 205 0 205 0 0 450 0 450 -55 0
-55 0 0 -50 0 -50 -70 0 -70 0 0 50 0 50 -385 0 -385 0 0 -50z"/>
<path d="M1210 220 l0 -50 -75 0 -75 0 0 -85 0 -85 75 0 75 0 0 85 0 85 130 0
130 0 0 50 0 50 -130 0 -130 0 0 -50z"/>
</g>
</svg>
