<?xml version="1.0" standalone="no"?>
<!DOCTYPE svg PUBLIC "-//W3C//DTD SVG 20010904//EN"
 "http://www.w3.org/TR/2001/REC-SVG-20010904/DTD/svg10.dtd">
<svg version="1.0" xmlns="http://www.w3.org/2000/svg"
 width="146.000000pt" height="147.000000pt" viewBox="0 0 146.000000 147.000000"
 preserveAspectRatio="xMidYMid meet">
<metadata>
Created by potrace 1.16, written by Peter Selinger 2001-2019
</metadata>
<g transform="translate(0.000000,147.000000) scale(0.100000,-0.100000)"
fill="#000000" stroke="none">
<path d="M0 735 l0 -735 180 0 180 0 0 50 0 50 70 0 70 0 0 -50 0 -50 480 0
480 0 0 735 0 735 -100 0 -100 0 0 -185 0 -185 -150 0 -150 0 0 185 0 185
-305 0 -305 0 0 -185 0 -185 -150 0 -150 0 0 185 0 185 -25 0 -25 0 0 -735z"/>
</g>
</svg>
