<?xml version="1.0" standalone="no"?>
<!DOCTYPE svg PUBLIC "-//W3C//DTD SVG 20010904//EN"
 "http://www.w3.org/TR/2001/REC-SVG-20010904/DTD/svg10.dtd">
<svg version="1.0" xmlns="http://www.w3.org/2000/svg"
 width="149.000000pt" height="299.000000pt" viewBox="0 0 149.000000 299.000000"
 preserveAspectRatio="xMidYMid meet">

<g transform="translate(0.000000,299.000000) scale(0.100000,-0.100000)"
fill="#000000" stroke="none">
<path d="M460 2945 l0 -45 -55 0 -55 0 0 -50 0 -50 -60 0 -60 0 0 -50 0 -50
-55 0 -55 0 0 -50 0 -50 -60 0 -60 0 0 -800 0 -800 60 0 60 0 0 -150 0 -150
-60 0 -60 0 0 -350 0 -350 695 0 695 0 0 200 0 200 50 0 50 0 0 150 0 150
-170 0 -170 0 0 195 0 195 -60 0 -60 0 0 60 0 60 60 0 60 0 0 295 0 295 170 0
170 0 0 200 0 200 -170 0 -170 0 0 250 0 250 -55 0 -55 0 0 50 0 50 -60 0 -60
0 0 50 0 50 -55 0 -55 0 0 45 0 45 -175 0 -175 0 0 -45z m120 -1495 l0 -50
-60 0 -60 0 0 -50 0 -50 -55 0 -55 0 0 -50 0 -50 -60 0 -60 0 0 -50 0 -50 -55
0 -55 0 0 100 0 100 55 0 55 0 0 50 0 50 60 0 60 0 0 50 0 50 115 0 115 0 0
-50z m460 0 l0 -50 -60 0 -60 0 0 -50 0 -50 -55 0 -55 0 0 -50 0 -50 -60 0
-60 0 0 -50 0 -50 -115 0 -115 0 0 50 0 50 60 0 60 0 0 50 0 50 55 0 55 0 0
50 0 50 60 0 60 0 0 50 0 50 115 0 115 0 0 -50z"/>
</g>
</svg>
