<?xml version="1.0" standalone="no"?>
<!DOCTYPE svg PUBLIC "-//W3C//DTD SVG 20010904//EN"
 "http://www.w3.org/TR/2001/REC-SVG-20010904/DTD/svg10.dtd">
<svg version="1.0" xmlns="http://www.w3.org/2000/svg"
 width="147.000000pt" height="146.000000pt" viewBox="0 0 147.000000 146.000000"
 preserveAspectRatio="xMidYMid meet">
<metadata>
Created by potrace 1.16, written by Peter Selinger 2001-2019
</metadata>
<g transform="translate(0.000000,146.000000) scale(0.100000,-0.100000)"
fill="#000000" stroke="none">
<path d="M0 1295 l0 -165 130 0 130 0 0 50 0 50 75 0 75 0 0 115 0 115 -75 0
c-60 0 -75 -3 -75 -15 0 -12 -16 -15 -80 -15 -64 0 -80 3 -80 15 0 11 -12 15
-50 15 l-50 0 0 -165z"/>
<path d="M560 1197 c0 -145 -3 -332 -7 -415 l-6 -152 -74 0 -73 0 0 -50 0 -50
-200 0 -200 0 0 -265 0 -265 280 0 c242 0 280 2 280 15 0 12 15 15 75 15 60 0
75 -3 75 -15 0 -12 15 -15 75 -15 60 0 75 3 75 15 0 12 15 15 75 15 60 0 75
-3 75 -15 0 -12 16 -15 80 -15 l80 0 0 265 0 265 -75 0 -75 0 0 50 0 50 -150
0 -150 0 0 415 0 415 -80 0 -80 0 0 -263z"/>
</g>
</svg>
