<?xml version="1.0" standalone="no"?>
<!DOCTYPE svg PUBLIC "-//W3C//DTD SVG 20010904//EN"
 "http://www.w3.org/TR/2001/REC-SVG-20010904/DTD/svg10.dtd">
<svg version="1.0" xmlns="http://www.w3.org/2000/svg"
 width="146.000000pt" height="146.000000pt" viewBox="0 0 146.000000 146.000000"
 preserveAspectRatio="xMidYMid meet">
<metadata>
Created by potrace 1.16, written by Peter Selinger 2001-2019
</metadata>
<g transform="translate(0.000000,146.000000) scale(0.100000,-0.100000)"
fill="#000000" stroke="none">
<path d="M0 1395 c0 -63 1 -65 25 -65 23 0 25 -3 25 -50 0 -47 -2 -50 -25 -50
-23 0 -25 -3 -25 -50 l0 -50 175 0 175 0 0 50 0 50 75 0 75 0 0 115 0 115 -75
0 c-60 0 -75 -3 -75 -15 0 -12 -15 -15 -75 -15 -60 0 -75 3 -75 15 0 12 -18
15 -100 15 l-100 0 0 -65z"/>
<path d="M1110 1345 l0 -115 75 0 75 0 0 -50 0 -50 100 0 100 0 0 165 0 165
-175 0 -175 0 0 -115z m305 -65 l0 -45 -77 -3 -78 -3 0 51 0 51 78 -3 77 -3 0
-45z"/>
<path d="M650 1380 l0 -49 78 -3 77 -3 0 -45 0 -45 -77 -3 -78 -3 0 -49 0 -50
80 0 80 0 0 50 0 50 75 0 75 0 0 50 0 50 -75 0 -75 0 0 50 0 50 -80 0 -80 0 0
-50z"/>
<path d="M40 880 l0 -150 33 -1 c17 -1 51 -1 75 1 l42 2 0 -50 c0 -49 1 -50
33 -53 17 -2 260 -3 540 -1 l507 3 0 50 0 50 73 -2 72 -2 3 151 3 152 -691 0
-690 0 0 -150z m1210 -50 l0 -100 -520 0 -520 0 0 100 0 100 520 0 520 0 0
-100z"/>
<path d="M0 265 l0 -265 25 0 c24 0 25 2 25 65 l0 65 75 0 75 0 0 50 0 50 150
0 150 0 0 -100 0 -100 -75 0 c-60 0 -75 -3 -75 -15 0 -13 41 -15 305 -15 264
0 305 2 305 15 0 12 -15 15 -75 15 l-75 0 0 100 0 100 150 0 150 0 0 -50 0
-50 75 0 75 0 0 -65 0 -65 100 0 100 0 0 265 0 265 -730 0 -730 0 0 -265z"/>
</g>
</svg>
