<svg id="svg" version="1.1" xmlns="http://www.w3.org/2000/svg" xmlns:xlink="http://www.w3.org/1999/xlink" width="400" height="400" viewBox="0, 0, 400,400"><g id="svgg"><path id="path0" d="M215.600 0.500 C 215.600 0.665,216.905 0.775,218.500 0.746 C 221.554 0.688,221.221 0.509,217.700 0.316 C 216.545 0.252,215.600 0.335,215.600 0.500 M180.100 0.691 C 180.925 0.778,182.275 0.778,183.100 0.691 C 183.925 0.605,183.250 0.534,181.600 0.534 C 179.950 0.534,179.275 0.605,180.100 0.691 M190.000 2.832 C 185.710 3.006,181.120 3.336,179.800 3.566 C 178.480 3.796,175.240 4.180,172.600 4.420 C 169.960 4.659,167.530 4.966,167.200 5.102 C 166.645 5.330,164.892 5.695,159.200 6.766 C 157.008 7.179,151.282 8.539,149.000 9.188 C 143.775 10.675,141.620 11.345,140.486 11.834 C 139.764 12.145,138.830 12.400,138.410 12.400 C 137.990 12.400,137.536 12.580,137.400 12.800 C 137.264 13.020,136.658 13.200,136.053 13.200 C 135.448 13.200,134.604 13.464,134.176 13.787 C 133.749 14.110,133.040 14.375,132.600 14.376 C 132.160 14.377,130.720 14.905,129.400 15.549 C 128.080 16.193,126.460 16.900,125.800 17.120 C 121.842 18.436,105.083 26.419,104.584 27.225 C 104.450 27.442,103.094 28.248,101.570 29.015 C 100.047 29.782,98.797 30.543,98.794 30.705 C 98.790 30.867,97.890 31.440,96.794 31.979 C 95.697 32.517,94.800 33.073,94.800 33.213 C 94.800 33.354,93.765 33.984,92.500 34.613 C 91.235 35.243,89.750 36.091,89.200 36.499 C 86.161 38.751,82.921 41.261,82.366 41.793 C 82.018 42.127,81.568 42.403,81.366 42.407 C 81.165 42.411,80.576 42.861,80.058 43.407 C 79.540 43.953,78.905 44.400,78.647 44.400 C 78.389 44.400,77.886 44.715,77.529 45.100 C 77.173 45.485,76.368 46.214,75.740 46.720 C 67.845 53.088,53.088 67.845,46.720 75.740 C 46.214 76.368,45.485 77.173,45.100 77.529 C 44.715 77.886,44.400 78.389,44.400 78.647 C 44.400 78.905,43.953 79.540,43.407 80.058 C 42.861 80.576,42.411 81.165,42.407 81.366 C 42.403 81.568,42.127 82.018,41.793 82.366 C 41.261 82.921,38.751 86.161,36.499 89.200 C 36.091 89.750,35.243 91.235,34.613 92.500 C 33.984 93.765,33.354 94.800,33.213 94.800 C 33.073 94.800,32.517 95.697,31.979 96.794 C 31.440 97.890,30.867 98.790,30.705 98.794 C 30.543 98.797,29.782 100.047,29.015 101.570 C 28.248 103.094,27.442 104.450,27.225 104.584 C 26.419 105.083,18.436 121.842,17.120 125.800 C 16.900 126.460,16.193 128.080,15.549 129.400 C 14.905 130.720,14.377 132.160,14.376 132.600 C 14.375 133.040,14.110 133.749,13.787 134.176 C 13.464 134.604,13.200 135.448,13.200 136.053 C 13.200 136.658,13.020 137.264,12.800 137.400 C 12.580 137.536,12.400 137.990,12.400 138.410 C 12.400 138.830,12.152 139.764,11.848 140.486 C 11.544 141.209,11.110 142.430,10.883 143.200 C 8.894 149.949,7.457 155.533,6.766 159.200 C 5.695 164.891,5.330 166.645,5.102 167.200 C 4.825 167.874,3.704 177.905,3.157 184.600 C 2.693 190.275,2.691 210.165,3.153 215.600 C 3.811 223.328,4.842 232.192,5.177 233.000 C 5.360 233.440,5.713 234.970,5.961 236.400 C 7.404 244.703,9.654 253.630,11.809 259.600 C 12.087 260.370,12.527 261.810,12.787 262.800 C 13.047 263.790,13.517 265.110,13.830 265.732 C 14.144 266.355,14.400 267.214,14.400 267.640 C 14.400 268.066,14.940 269.427,15.600 270.664 C 16.260 271.901,16.800 273.145,16.800 273.428 C 16.800 273.712,17.340 275.111,18.000 276.537 C 18.660 277.963,19.200 279.327,19.200 279.569 C 19.200 280.227,27.175 296.032,27.846 296.703 C 28.165 297.022,28.795 298.007,29.247 298.891 C 29.698 299.776,30.592 301.224,31.233 302.110 C 31.875 302.995,32.400 303.875,32.400 304.065 C 32.400 304.254,33.120 305.464,34.000 306.753 C 34.880 308.042,35.600 309.274,35.600 309.490 C 35.600 309.706,36.005 310.350,36.500 310.921 C 36.995 311.491,38.210 313.059,39.200 314.405 C 40.190 315.750,41.765 317.827,42.700 319.020 C 43.635 320.213,44.400 321.311,44.400 321.461 C 44.400 321.610,44.669 322.018,44.998 322.366 C 45.328 322.715,46.273 323.799,47.098 324.776 C 53.548 332.404,59.425 338.659,64.847 343.667 C 72.633 350.860,76.220 353.907,81.000 357.387 C 82.320 358.348,83.780 359.464,84.245 359.867 C 85.134 360.639,85.775 361.092,87.900 362.449 C 88.615 362.905,89.200 363.429,89.200 363.613 C 89.200 363.796,89.605 364.071,90.100 364.224 C 90.595 364.377,92.179 365.290,93.621 366.251 C 95.062 367.213,96.388 368.000,96.567 368.000 C 96.746 368.000,97.727 368.599,98.746 369.332 C 99.766 370.064,101.410 371.067,102.400 371.561 C 103.390 372.055,104.380 372.671,104.600 372.929 C 105.072 373.484,120.803 381.226,121.427 381.211 C 121.662 381.205,122.909 381.740,124.200 382.400 C 125.491 383.060,126.802 383.600,127.115 383.600 C 127.428 383.600,128.580 384.050,129.675 384.600 C 130.770 385.150,132.065 385.600,132.553 385.600 C 133.041 385.600,133.634 385.794,133.871 386.031 C 134.108 386.268,134.909 386.612,135.651 386.796 C 136.919 387.110,138.775 387.722,140.600 388.430 C 141.040 388.600,141.850 388.829,142.400 388.937 C 142.950 389.046,144.210 389.441,145.200 389.816 C 147.170 390.561,152.638 391.864,160.400 393.437 C 163.150 393.995,165.940 394.607,166.600 394.798 C 167.260 394.989,169.870 395.341,172.400 395.581 C 174.930 395.821,178.080 396.196,179.400 396.413 C 186.423 397.571,212.676 397.557,220.800 396.391 C 222.450 396.154,225.870 395.715,228.400 395.416 C 233.588 394.802,240.601 393.539,243.717 392.658 C 244.862 392.333,247.240 391.765,249.000 391.394 C 251.760 390.813,256.772 389.376,259.400 388.413 C 261.589 387.611,263.112 387.099,264.200 386.800 C 266.106 386.276,268.039 385.558,270.275 384.542 C 271.416 384.024,272.634 383.600,272.982 383.600 C 273.330 383.600,274.581 383.085,275.760 382.455 C 276.940 381.826,278.422 381.181,279.053 381.024 C 280.806 380.586,295.461 373.212,296.705 372.143 C 297.307 371.625,297.998 371.201,298.240 371.200 C 298.482 371.200,299.472 370.624,300.440 369.921 C 301.408 369.217,303.235 368.139,304.500 367.524 C 305.765 366.909,306.800 366.256,306.800 366.071 C 306.800 365.887,307.700 365.315,308.800 364.800 C 309.900 364.285,310.800 363.744,310.800 363.599 C 310.800 363.454,311.737 362.728,312.881 361.986 C 314.026 361.244,315.241 360.394,315.581 360.095 C 315.922 359.797,317.370 358.674,318.800 357.600 C 320.230 356.526,321.715 355.366,322.100 355.024 C 322.485 354.681,322.949 354.400,323.130 354.400 C 323.312 354.400,323.883 353.950,324.400 353.400 C 324.917 352.850,325.510 352.400,325.719 352.400 C 325.927 352.400,327.146 351.365,328.427 350.100 C 329.708 348.835,332.334 346.360,334.263 344.600 C 338.666 340.582,340.582 338.666,344.600 334.263 C 346.360 332.334,348.835 329.708,350.100 328.427 C 351.365 327.146,352.400 325.927,352.400 325.719 C 352.400 325.510,352.850 324.917,353.400 324.400 C 353.950 323.883,354.400 323.312,354.400 323.130 C 354.400 322.949,354.681 322.485,355.024 322.100 C 355.366 321.715,356.526 320.230,357.600 318.800 C 358.674 317.370,359.797 315.922,360.095 315.581 C 360.394 315.241,361.244 314.026,361.986 312.881 C 362.728 311.737,363.454 310.800,363.599 310.800 C 363.744 310.800,364.285 309.900,364.800 308.800 C 365.315 307.700,365.887 306.800,366.071 306.800 C 366.256 306.800,366.909 305.765,367.524 304.500 C 368.139 303.235,369.217 301.408,369.921 300.440 C 370.624 299.472,371.200 298.482,371.200 298.240 C 371.201 297.998,371.625 297.307,372.143 296.705 C 373.212 295.461,380.586 280.806,381.024 279.053 C 381.181 278.422,381.826 276.940,382.455 275.760 C 383.085 274.581,383.600 273.330,383.600 272.982 C 383.600 272.634,384.024 271.416,384.542 270.275 C 385.558 268.039,386.276 266.106,386.800 264.200 C 387.099 263.112,387.611 261.589,388.413 259.400 C 389.376 256.772,390.813 251.760,391.394 249.000 C 391.765 247.240,392.333 244.862,392.658 243.717 C 393.539 240.601,394.802 233.588,395.416 228.400 C 395.715 225.870,396.154 222.450,396.391 220.800 C 397.557 212.676,397.571 186.423,396.413 179.400 C 396.196 178.080,395.821 174.930,395.581 172.400 C 395.341 169.870,394.989 167.260,394.798 166.600 C 394.607 165.940,393.995 163.150,393.437 160.400 C 391.864 152.638,390.561 147.170,389.816 145.200 C 389.441 144.210,389.046 142.950,388.937 142.400 C 388.829 141.850,388.600 141.040,388.430 140.600 C 387.722 138.775,387.110 136.919,386.796 135.651 C 386.612 134.909,386.268 134.108,386.031 133.871 C 385.794 133.634,385.600 133.041,385.600 132.553 C 385.600 132.065,385.150 130.770,384.600 129.675 C 384.050 128.580,383.600 127.428,383.600 127.115 C 383.600 126.802,383.060 125.491,382.400 124.200 C 381.740 122.909,381.205 121.662,381.211 121.427 C 381.226 120.803,373.484 105.072,372.929 104.600 C 372.671 104.380,372.055 103.390,371.561 102.400 C 371.067 101.410,370.064 99.766,369.332 98.746 C 368.599 97.727,368.000 96.746,368.000 96.567 C 368.000 96.388,367.213 95.062,366.251 93.621 C 365.290 92.179,364.377 90.595,364.224 90.100 C 364.071 89.605,363.796 89.200,363.613 89.200 C 363.429 89.200,362.905 88.615,362.449 87.900 C 361.092 85.775,360.639 85.134,359.867 84.245 C 359.464 83.780,358.348 82.320,357.387 81.000 C 353.907 76.220,350.860 72.633,343.667 64.847 C 338.659 59.425,332.404 53.548,324.776 47.098 C 323.799 46.273,322.715 45.328,322.366 44.998 C 322.018 44.669,321.610 44.400,321.461 44.400 C 321.311 44.400,320.213 43.635,319.020 42.700 C 317.827 41.765,315.750 40.190,314.405 39.200 C 313.059 38.210,311.491 36.995,310.921 36.500 C 310.350 36.005,309.706 35.600,309.490 35.600 C 309.274 35.600,308.042 34.880,306.753 34.000 C 305.464 33.120,304.254 32.400,304.065 32.400 C 303.875 32.400,302.995 31.875,302.110 31.233 C 301.224 30.592,299.776 29.698,298.891 29.247 C 298.007 28.795,297.022 28.165,296.703 27.846 C 296.032 27.175,280.227 19.200,279.569 19.200 C 279.327 19.200,277.963 18.660,276.537 18.000 C 275.111 17.340,273.712 16.800,273.428 16.800 C 273.145 16.800,271.901 16.260,270.664 15.600 C 269.427 14.940,268.066 14.400,267.640 14.400 C 267.214 14.400,266.355 14.144,265.732 13.830 C 265.110 13.517,263.790 13.047,262.800 12.787 C 261.810 12.527,260.370 12.087,259.600 11.809 C 253.630 9.654,244.703 7.404,236.400 5.961 C 234.970 5.713,233.440 5.360,233.000 5.177 C 232.099 4.803,222.064 3.675,215.400 3.199 C 207.673 2.647,198.026 2.507,190.000 2.832 M0.534 181.600 C 0.534 183.250,0.605 183.925,0.691 183.100 C 0.778 182.275,0.778 180.925,0.691 180.100 C 0.605 179.275,0.534 179.950,0.534 181.600 M0.316 217.700 C 0.509 221.221,0.688 221.554,0.746 218.500 C 0.775 216.905,0.665 215.600,0.500 215.600 C 0.335 215.600,0.252 216.545,0.316 217.700 M0.769 225.500 C 0.753 225.665,0.683 226.085,0.615 226.433 C 0.546 226.782,0.746 227.067,1.059 227.067 C 1.420 227.067,1.487 226.927,1.245 226.685 C 1.034 226.474,0.958 226.054,1.074 225.751 C 1.190 225.448,1.176 225.200,1.043 225.200 C 0.909 225.200,0.786 225.335,0.769 225.500 " stroke="none" fill="#b4b4b4" fill-rule="evenodd"></path><path id="path1" d="M184.218 0.429 C 184.403 0.728,182.936 0.805,179.341 0.682 C 174.253 0.509,173.035 0.610,173.385 1.175 C 173.598 1.520,173.502 1.531,169.500 1.603 C 166.626 1.656,166.245 1.799,166.320 2.800 C 166.329 2.910,164.820 2.942,162.968 2.871 C 160.116 2.761,159.600 2.838,159.600 3.371 C 159.600 3.868,159.132 4.000,157.376 4.000 C 156.106 4.000,155.251 4.160,155.383 4.372 C 155.766 4.992,154.991 5.207,152.231 5.248 C 150.515 5.274,149.600 5.450,149.600 5.754 C 149.600 6.058,149.040 6.168,148.003 6.069 C 146.810 5.955,146.345 6.079,146.161 6.558 C 145.977 7.037,145.368 7.200,143.757 7.200 C 142.106 7.200,141.600 7.341,141.600 7.800 C 141.600 8.368,140.723 8.586,139.100 8.421 C 138.702 8.380,138.400 8.619,138.400 8.975 C 138.400 9.438,137.984 9.600,136.800 9.600 C 135.756 9.600,135.200 9.780,135.200 10.119 C 135.200 10.459,134.684 10.623,133.700 10.595 C 132.747 10.568,131.943 10.813,131.495 11.265 C 130.978 11.787,130.452 11.910,129.528 11.726 C 128.463 11.513,128.305 11.577,128.520 12.137 C 128.727 12.676,128.515 12.800,127.387 12.800 C 126.421 12.800,126.000 12.982,126.000 13.400 C 126.000 13.833,125.556 14.000,124.400 14.000 C 123.244 14.000,122.800 14.167,122.800 14.600 C 122.800 15.000,122.400 15.200,121.600 15.200 C 120.940 15.200,120.400 15.380,120.400 15.600 C 120.400 15.820,119.920 16.000,119.333 16.000 C 118.747 16.000,118.385 16.118,118.530 16.263 C 118.985 16.718,118.005 17.526,117.240 17.326 C 116.809 17.214,116.411 17.394,116.268 17.768 C 116.102 18.199,115.513 18.400,114.413 18.400 C 113.279 18.400,112.800 18.570,112.800 18.973 C 112.800 19.302,112.330 19.601,111.700 19.673 C 111.095 19.743,110.633 19.990,110.674 20.221 C 110.714 20.453,110.265 20.633,109.675 20.621 C 108.979 20.607,108.601 20.811,108.599 21.200 C 108.597 21.619,108.264 21.761,107.497 21.671 C 106.778 21.587,106.313 21.760,106.156 22.171 C 106.022 22.521,105.445 22.803,104.857 22.806 C 104.061 22.811,103.943 22.903,104.379 23.179 C 104.832 23.465,104.718 23.605,103.855 23.822 C 103.144 24.000,102.827 24.294,102.964 24.649 C 103.114 25.041,102.831 25.200,101.987 25.200 C 101.210 25.200,100.800 25.403,100.800 25.787 C 100.800 26.152,100.566 26.285,100.184 26.138 C 99.791 25.988,99.610 26.102,99.684 26.451 C 99.756 26.795,99.371 27.049,98.654 27.131 C 97.949 27.212,97.435 27.546,97.316 28.001 C 97.193 28.469,96.845 28.686,96.363 28.593 C 95.909 28.506,95.433 28.764,95.182 29.234 C 94.950 29.668,94.589 29.917,94.380 29.788 C 94.171 29.658,94.000 29.799,94.000 30.099 C 94.000 30.458,93.588 30.617,92.800 30.563 C 91.889 30.500,91.600 30.650,91.600 31.184 C 91.600 31.720,91.361 31.843,90.600 31.698 C 89.776 31.540,89.600 31.663,89.600 32.396 C 89.600 33.022,89.422 33.217,89.000 33.055 C 88.635 32.915,88.400 33.055,88.400 33.413 C 88.400 33.914,87.389 34.219,86.300 34.047 C 86.135 34.021,86.000 34.193,86.000 34.429 C 86.000 34.977,84.985 36.000,84.441 36.000 C 84.212 36.000,84.129 36.270,84.255 36.600 C 84.484 37.195,83.882 37.401,82.300 37.268 C 81.852 37.231,81.600 37.491,81.600 37.992 C 81.600 38.553,81.414 38.704,80.945 38.524 C 80.505 38.355,80.350 38.449,80.470 38.811 C 80.734 39.602,79.350 40.807,78.304 40.696 C 77.757 40.638,77.439 40.797,77.500 41.100 C 77.555 41.375,77.240 41.600,76.800 41.600 C 76.360 41.600,76.000 41.791,76.000 42.024 C 76.000 42.257,76.225 42.312,76.500 42.147 C 76.844 41.940,76.830 42.056,76.455 42.519 C 76.155 42.889,75.750 43.093,75.555 42.972 C 75.360 42.851,75.200 43.033,75.200 43.376 C 75.200 43.805,74.818 44.000,73.976 44.000 C 73.257 44.000,72.855 44.166,73.002 44.403 C 73.139 44.624,72.932 44.928,72.543 45.077 C 71.487 45.482,70.413 46.497,70.644 46.871 C 70.756 47.052,70.567 47.200,70.224 47.200 C 69.881 47.200,69.600 47.470,69.600 47.800 C 69.600 48.130,69.330 48.400,69.000 48.400 C 68.670 48.400,68.400 48.670,68.400 49.000 C 68.400 49.330,68.130 49.600,67.800 49.600 C 67.470 49.600,67.200 49.780,67.200 50.000 C 67.200 50.220,66.750 50.400,66.200 50.400 C 65.650 50.400,65.200 50.597,65.200 50.837 C 65.200 51.622,63.805 53.068,63.232 52.877 C 62.849 52.750,62.752 52.897,62.924 53.345 C 63.104 53.815,62.952 54.000,62.387 54.000 C 61.954 54.000,61.600 54.270,61.600 54.600 C 61.600 54.930,61.308 55.200,60.951 55.200 C 60.435 55.200,60.399 55.317,60.774 55.769 C 61.161 56.235,61.098 56.298,60.423 56.122 C 59.843 55.970,59.600 56.098,59.600 56.553 C 59.600 56.909,59.330 57.200,59.000 57.200 C 58.670 57.200,58.400 57.470,58.400 57.800 C 58.400 58.130,58.130 58.400,57.800 58.400 C 57.470 58.400,57.200 58.670,57.200 59.000 C 57.200 59.330,56.909 59.600,56.553 59.600 C 56.098 59.600,55.970 59.843,56.122 60.423 C 56.298 61.098,56.235 61.161,55.769 60.774 C 55.317 60.399,55.200 60.435,55.200 60.951 C 55.200 61.308,54.930 61.600,54.600 61.600 C 54.270 61.600,54.000 61.954,54.000 62.387 C 54.000 62.952,53.815 63.104,53.345 62.924 C 52.897 62.752,52.750 62.849,52.877 63.232 C 53.068 63.805,51.622 65.200,50.837 65.200 C 50.597 65.200,50.400 65.650,50.400 66.200 C 50.400 66.750,50.220 67.200,50.000 67.200 C 49.780 67.200,49.600 67.470,49.600 67.800 C 49.600 68.130,49.330 68.400,49.000 68.400 C 48.670 68.400,48.400 68.670,48.400 69.000 C 48.400 69.330,48.130 69.600,47.800 69.600 C 47.470 69.600,47.200 69.881,47.200 70.224 C 47.200 70.567,47.052 70.756,46.871 70.644 C 46.497 70.413,45.482 71.487,45.077 72.543 C 44.928 72.932,44.624 73.139,44.403 73.002 C 44.166 72.855,44.000 73.257,44.000 73.976 C 44.000 74.818,43.805 75.200,43.376 75.200 C 43.033 75.200,42.851 75.360,42.972 75.555 C 43.093 75.750,42.889 76.155,42.519 76.455 C 42.056 76.830,41.940 76.844,42.147 76.500 C 42.312 76.225,42.257 76.000,42.024 76.000 C 41.791 76.000,41.600 76.360,41.600 76.800 C 41.600 77.240,41.375 77.555,41.100 77.500 C 40.797 77.439,40.638 77.757,40.696 78.304 C 40.807 79.350,39.602 80.734,38.811 80.470 C 38.449 80.350,38.355 80.505,38.524 80.945 C 38.704 81.414,38.553 81.600,37.992 81.600 C 37.491 81.600,37.231 81.852,37.268 82.300 C 37.401 83.882,37.195 84.484,36.600 84.255 C 36.270 84.129,36.000 84.212,36.000 84.441 C 36.000 84.985,34.977 86.000,34.429 86.000 C 34.193 86.000,34.021 86.135,34.047 86.300 C 34.219 87.389,33.914 88.400,33.413 88.400 C 33.055 88.400,32.915 88.635,33.055 89.000 C 33.217 89.422,33.022 89.600,32.396 89.600 C 31.663 89.600,31.540 89.776,31.698 90.600 C 31.843 91.361,31.720 91.600,31.184 91.600 C 30.650 91.600,30.500 91.889,30.563 92.800 C 30.617 93.588,30.458 94.000,30.099 94.000 C 29.799 94.000,29.658 94.171,29.788 94.380 C 29.917 94.589,29.668 94.950,29.234 95.182 C 28.764 95.433,28.506 95.909,28.593 96.363 C 28.686 96.845,28.469 97.193,28.001 97.316 C 27.546 97.435,27.212 97.949,27.131 98.654 C 27.049 99.371,26.795 99.756,26.451 99.684 C 26.102 99.610,25.988 99.791,26.138 100.184 C 26.285 100.566,26.152 100.800,25.787 100.800 C 25.403 100.800,25.200 101.210,25.200 101.987 C 25.200 102.831,25.041 103.114,24.649 102.964 C 24.294 102.827,24.000 103.144,23.822 103.855 C 23.605 104.718,23.465 104.832,23.179 104.379 C 22.903 103.943,22.811 104.061,22.806 104.857 C 22.803 105.445,22.521 106.022,22.171 106.156 C 21.760 106.313,21.587 106.778,21.671 107.497 C 21.761 108.264,21.619 108.597,21.200 108.599 C 20.811 108.601,20.607 108.979,20.621 109.675 C 20.633 110.265,20.453 110.714,20.221 110.674 C 19.990 110.633,19.743 111.095,19.673 111.700 C 19.601 112.330,19.302 112.800,18.973 112.800 C 18.570 112.800,18.400 113.279,18.400 114.413 C 18.400 115.513,18.199 116.102,17.768 116.268 C 17.394 116.411,17.214 116.809,17.326 117.240 C 17.526 118.005,16.718 118.985,16.263 118.530 C 16.118 118.385,16.000 118.747,16.000 119.333 C 16.000 119.920,15.820 120.400,15.600 120.400 C 15.380 120.400,15.200 120.940,15.200 121.600 C 15.200 122.400,15.000 122.800,14.600 122.800 C 14.167 122.800,14.000 123.244,14.000 124.400 C 14.000 125.556,13.833 126.000,13.400 126.000 C 12.982 126.000,12.800 126.421,12.800 127.387 C 12.800 128.515,12.676 128.727,12.137 128.520 C 11.577 128.305,11.513 128.463,11.726 129.528 C 11.910 130.452,11.787 130.978,11.265 131.495 C 10.813 131.943,10.568 132.747,10.595 133.700 C 10.623 134.684,10.459 135.200,10.119 135.200 C 9.780 135.200,9.600 135.756,9.600 136.800 C 9.600 137.984,9.438 138.400,8.975 138.400 C 8.619 138.400,8.380 138.702,8.421 139.100 C 8.586 140.723,8.368 141.600,7.800 141.600 C 7.341 141.600,7.200 142.106,7.200 143.757 C 7.200 145.368,7.037 145.977,6.558 146.161 C 6.079 146.345,5.955 146.810,6.069 148.003 C 6.168 149.040,6.058 149.600,5.754 149.600 C 5.450 149.600,5.274 150.515,5.248 152.231 C 5.207 154.991,4.992 155.766,4.372 155.383 C 4.160 155.251,4.000 156.106,4.000 157.376 C 4.000 159.132,3.868 159.600,3.371 159.600 C 2.838 159.600,2.761 160.116,2.871 162.968 C 2.942 164.820,2.910 166.329,2.800 166.320 C 1.799 166.245,1.656 166.626,1.603 169.500 C 1.531 173.502,1.520 173.598,1.175 173.385 C 0.610 173.035,0.509 174.253,0.682 179.341 C 0.805 182.936,0.728 184.403,0.429 184.218 C 0.127 184.031,0.000 188.625,0.000 199.776 C 0.000 210.723,0.132 215.600,0.427 215.600 C 0.718 215.600,0.793 217.378,0.661 221.198 C 0.533 224.936,0.611 226.883,0.896 227.059 C 1.169 227.228,1.208 227.121,1.003 226.762 C 0.776 226.364,0.812 226.318,1.126 226.605 C 1.370 226.828,1.604 228.127,1.644 229.492 C 1.695 231.163,1.863 231.893,2.159 231.728 C 2.402 231.593,2.375 231.725,2.100 232.021 C 1.410 232.765,1.472 234.000,2.200 234.000 C 2.803 234.000,2.871 234.456,2.902 238.700 C 2.910 239.859,3.087 240.400,3.457 240.400 C 3.849 240.400,4.000 241.014,4.000 242.600 C 4.000 244.289,4.139 244.800,4.600 244.800 C 5.076 244.800,5.200 245.378,5.200 247.600 C 5.200 249.696,5.337 250.400,5.745 250.400 C 6.130 250.400,6.245 250.810,6.135 251.800 C 6.031 252.746,6.146 253.202,6.491 253.206 C 6.843 253.210,6.815 253.332,6.400 253.600 C 5.887 253.931,5.902 253.989,6.500 253.994 C 7.133 253.999,7.518 255.762,7.232 257.345 C 7.198 257.535,7.436 257.895,7.762 258.145 C 8.088 258.395,8.428 259.230,8.519 260.000 C 8.611 260.775,8.889 261.355,9.142 261.300 C 9.550 261.211,9.818 262.863,9.628 264.306 C 9.592 264.585,9.779 264.765,10.045 264.706 C 10.333 264.643,10.543 265.084,10.564 265.800 C 10.584 266.460,10.780 267.132,11.000 267.294 C 11.236 267.467,11.154 267.595,10.800 267.607 C 10.343 267.621,10.386 267.766,10.982 268.216 C 11.546 268.643,11.736 269.209,11.666 270.253 C 11.588 271.412,11.690 271.651,12.184 271.461 C 12.666 271.277,12.800 271.528,12.800 272.613 C 12.800 273.579,12.982 274.000,13.400 274.000 C 13.806 274.000,14.000 274.406,14.000 275.256 C 14.000 275.947,14.270 276.712,14.599 276.956 C 14.929 277.200,15.238 277.895,15.286 278.500 C 15.335 279.105,15.580 279.600,15.832 279.600 C 16.097 279.600,16.213 279.997,16.109 280.544 C 15.978 281.228,16.138 281.543,16.690 281.687 C 17.307 281.849,17.420 282.164,17.283 283.343 C 17.149 284.486,17.251 284.800,17.756 284.800 C 18.316 284.800,18.629 285.751,18.447 286.900 C 18.421 287.065,18.670 287.200,19.000 287.200 C 19.400 287.200,19.600 287.600,19.600 288.400 C 19.600 289.060,19.780 289.600,20.000 289.600 C 20.220 289.600,20.400 289.977,20.400 290.437 C 20.400 290.921,20.718 291.358,21.154 291.472 C 21.686 291.611,21.844 291.911,21.691 292.494 C 21.557 293.008,21.734 293.509,22.160 293.820 C 22.536 294.095,22.871 294.686,22.905 295.132 C 22.939 295.579,23.121 295.849,23.310 295.732 C 23.499 295.615,23.749 295.885,23.866 296.332 C 23.989 296.800,24.305 297.058,24.612 296.940 C 24.977 296.800,25.185 297.155,25.272 298.068 C 25.347 298.847,25.602 299.360,25.886 299.305 C 26.166 299.250,26.275 299.461,26.143 299.805 C 26.002 300.173,26.149 300.400,26.531 300.400 C 26.906 300.400,27.196 300.831,27.273 301.500 C 27.354 302.199,27.627 302.584,28.022 302.557 C 28.486 302.526,28.602 302.807,28.477 303.657 C 28.352 304.511,28.472 304.800,28.955 304.800 C 29.310 304.800,29.600 305.070,29.600 305.400 C 29.600 305.730,29.860 306.000,30.177 306.000 C 30.531 306.000,30.697 306.297,30.606 306.768 C 30.525 307.191,30.715 307.635,31.029 307.756 C 31.343 307.876,31.600 308.447,31.600 309.025 C 31.600 309.748,31.856 310.142,32.423 310.290 C 32.911 310.418,33.160 310.728,33.035 311.053 C 32.916 311.363,33.080 311.600,33.413 311.600 C 33.799 311.600,34.000 312.011,34.000 312.800 C 34.000 313.460,34.193 314.000,34.429 314.000 C 34.982 314.000,36.000 315.018,36.000 315.571 C 36.000 315.807,36.251 316.000,36.557 316.000 C 37.254 316.000,37.657 316.986,37.320 317.864 C 37.121 318.383,37.245 318.482,37.882 318.315 C 38.529 318.146,38.658 318.257,38.503 318.851 C 38.371 319.355,38.518 319.600,38.953 319.600 C 39.309 319.600,39.600 319.780,39.600 320.000 C 39.600 320.220,39.891 320.400,40.247 320.400 C 40.715 320.400,40.830 320.641,40.664 321.277 C 40.433 322.162,42.616 324.800,43.580 324.800 C 43.811 324.800,44.000 325.340,44.000 326.000 C 44.000 326.800,44.200 327.200,44.600 327.200 C 44.930 327.200,45.200 327.388,45.200 327.617 C 45.200 328.315,46.711 329.703,47.165 329.422 C 47.426 329.260,47.499 329.399,47.353 329.779 C 47.198 330.182,47.341 330.400,47.757 330.400 C 48.111 330.400,48.400 330.670,48.400 331.000 C 48.400 331.330,48.664 331.600,48.986 331.600 C 49.679 331.600,50.400 332.810,50.400 333.974 C 50.400 334.442,50.660 334.800,51.000 334.800 C 51.330 334.800,51.600 335.064,51.600 335.387 C 51.600 335.745,51.835 335.885,52.200 335.745 C 52.744 335.536,52.998 336.008,52.837 336.930 C 52.806 337.111,52.977 337.138,53.217 336.989 C 53.464 336.837,53.749 337.084,53.874 337.560 C 53.994 338.022,54.342 338.400,54.647 338.400 C 54.951 338.400,55.200 338.593,55.200 338.829 C 55.200 339.064,55.470 339.527,55.800 339.857 C 56.130 340.187,56.400 340.332,56.400 340.180 C 56.400 340.027,56.668 340.124,56.996 340.396 C 57.323 340.668,57.475 341.079,57.333 341.308 C 57.173 341.568,57.382 341.646,57.887 341.514 C 58.548 341.341,58.659 341.453,58.485 342.118 C 58.318 342.755,58.417 342.879,58.936 342.680 C 59.416 342.496,59.600 342.643,59.600 343.213 C 59.600 343.659,59.870 344.000,60.224 344.000 C 60.567 344.000,60.736 344.180,60.600 344.400 C 60.464 344.620,60.633 344.800,60.976 344.800 C 61.319 344.800,61.600 345.089,61.600 345.443 C 61.600 345.850,61.820 346.001,62.200 345.855 C 62.763 345.639,63.000 346.081,62.814 347.000 C 62.770 347.220,62.867 347.267,63.030 347.103 C 63.415 346.719,64.459 347.580,64.172 348.045 C 64.051 348.240,64.233 348.400,64.576 348.400 C 64.919 348.400,65.200 348.690,65.200 349.045 C 65.200 349.532,65.489 349.648,66.379 349.518 C 67.027 349.423,67.466 349.493,67.354 349.675 C 67.241 349.857,67.431 350.114,67.775 350.246 C 68.119 350.378,68.400 350.736,68.400 351.043 C 68.400 351.349,68.670 351.600,69.000 351.600 C 69.330 351.600,69.600 351.870,69.600 352.200 C 69.600 352.530,69.881 352.800,70.224 352.800 C 70.567 352.800,70.756 352.948,70.644 353.129 C 70.417 353.496,71.790 354.800,72.405 354.800 C 72.622 354.800,72.800 355.070,72.800 355.400 C 72.800 355.788,73.189 356.000,73.904 356.000 C 74.936 356.000,76.306 357.319,76.085 358.100 C 76.038 358.265,76.270 358.400,76.600 358.400 C 76.930 358.400,77.200 358.691,77.200 359.047 C 77.200 359.526,77.467 359.642,78.232 359.496 C 78.887 359.371,79.340 359.500,79.474 359.849 C 79.591 360.152,79.931 360.400,80.230 360.400 C 80.550 360.400,80.680 360.648,80.545 361.000 C 80.386 361.415,80.571 361.600,81.145 361.600 C 81.718 361.600,81.904 361.785,81.745 362.200 C 81.570 362.654,81.817 362.800,82.757 362.800 C 83.595 362.800,84.000 362.995,84.000 363.400 C 84.000 363.749,84.363 364.000,84.867 364.000 C 85.343 364.000,85.624 364.109,85.491 364.243 C 85.082 364.651,86.540 365.915,87.600 366.071 C 88.150 366.153,88.555 366.440,88.500 366.709 C 88.445 366.979,88.754 367.200,89.187 367.200 C 89.663 367.200,89.897 367.403,89.778 367.712 C 89.653 368.040,89.974 368.256,90.673 368.314 C 91.274 368.364,91.953 368.610,92.182 368.861 C 92.480 369.187,92.457 369.236,92.100 369.035 C 91.825 368.880,91.600 368.943,91.600 369.176 C 91.600 369.409,92.226 369.600,92.991 369.600 C 94.033 369.600,94.546 369.851,95.037 370.600 C 95.397 371.150,96.012 371.600,96.403 371.600 C 96.794 371.600,97.218 371.870,97.345 372.200 C 97.471 372.530,98.031 372.800,98.587 372.800 C 99.221 372.800,99.600 373.025,99.600 373.400 C 99.600 373.730,99.870 374.000,100.200 374.000 C 100.530 374.000,100.800 374.180,100.800 374.400 C 100.800 374.620,100.935 374.779,101.100 374.753 C 102.306 374.562,103.152 374.859,102.945 375.400 C 102.799 375.780,102.950 376.000,103.357 376.000 C 103.711 376.000,104.003 376.315,104.006 376.700 C 104.011 377.264,104.082 377.291,104.368 376.838 C 104.655 376.385,104.914 376.482,105.708 377.338 C 106.249 377.922,107.076 378.400,107.546 378.400 C 108.065 378.400,108.400 378.653,108.400 379.045 C 108.400 379.532,108.689 379.648,109.576 379.518 C 110.275 379.416,110.721 379.519,110.676 379.773 C 110.634 380.008,111.095 380.257,111.700 380.327 C 112.330 380.399,112.800 380.698,112.800 381.027 C 112.800 381.421,113.267 381.602,114.300 381.606 C 115.850 381.612,117.633 382.326,116.400 382.447 C 116.070 382.479,116.430 382.622,117.200 382.765 C 118.072 382.928,118.556 383.228,118.484 383.562 C 118.411 383.896,118.596 384.011,118.972 383.866 C 119.305 383.738,119.839 383.896,120.160 384.217 C 120.481 384.538,121.206 384.800,121.771 384.800 C 122.436 384.800,122.800 385.020,122.800 385.424 C 122.800 385.767,122.939 385.961,123.110 385.856 C 123.667 385.511,126.203 386.256,126.100 386.734 C 126.039 387.018,126.540 387.200,127.387 387.200 C 128.472 387.200,128.723 387.334,128.539 387.816 C 128.348 388.312,128.592 388.412,129.788 388.332 C 130.866 388.259,131.383 388.426,131.670 388.940 C 131.888 389.330,132.457 389.618,132.933 389.580 C 134.667 389.443,135.642 389.609,135.400 390.000 C 135.251 390.242,135.796 390.400,136.776 390.400 C 137.953 390.400,138.400 390.565,138.400 391.000 C 138.400 391.431,138.841 391.600,139.967 391.600 C 140.837 391.600,141.605 391.815,141.695 392.084 C 141.784 392.351,142.543 392.607,143.383 392.655 C 145.697 392.785,147.058 393.193,146.444 393.573 C 146.140 393.761,146.632 393.891,147.646 393.891 C 148.591 393.891,149.432 394.095,149.515 394.345 C 149.609 394.626,150.723 394.800,152.433 394.800 C 154.626 394.800,155.200 394.924,155.200 395.400 C 155.200 395.861,155.711 396.000,157.400 396.000 C 159.089 396.000,159.600 396.139,159.600 396.600 C 159.600 397.083,160.222 397.200,162.800 397.200 C 165.192 397.200,166.000 397.334,166.000 397.731 C 166.000 398.120,166.877 398.288,169.300 398.364 C 173.859 398.506,173.639 398.471,173.216 398.981 C 172.722 399.576,171.291 399.520,194.900 399.839 C 207.103 400.005,215.600 399.972,215.600 399.760 C 215.599 399.560,217.956 399.442,220.900 399.495 C 225.111 399.571,226.288 399.473,226.627 399.019 C 226.907 398.644,227.940 398.420,229.627 398.367 C 231.042 398.324,232.537 398.115,232.948 397.904 C 233.473 397.635,233.615 397.651,233.425 397.960 C 233.275 398.202,233.343 398.400,233.576 398.400 C 233.809 398.400,234.000 398.130,234.000 397.800 C 234.000 397.317,234.622 397.200,237.200 397.200 C 239.778 397.200,240.400 397.083,240.400 396.600 C 240.400 396.139,240.911 396.000,242.600 396.000 C 244.289 396.000,244.800 395.861,244.800 395.400 C 244.800 394.924,245.374 394.800,247.567 394.800 C 249.326 394.800,250.390 394.629,250.490 394.331 C 250.581 394.058,251.343 393.890,252.323 393.929 C 253.573 393.977,254.000 393.842,254.000 393.397 C 254.000 392.820,254.401 392.726,256.933 392.704 C 257.556 392.698,258.160 392.448,258.276 392.147 C 258.403 391.814,259.095 391.600,260.043 391.600 C 261.160 391.600,261.600 391.431,261.600 391.000 C 261.600 390.569,262.041 390.400,263.167 390.400 C 264.028 390.400,264.803 390.192,264.887 389.938 C 264.972 389.685,265.797 389.477,266.721 389.477 C 267.861 389.477,268.400 389.304,268.400 388.938 C 268.400 388.356,268.776 388.253,270.545 388.350 C 271.417 388.397,271.635 388.268,271.458 387.806 C 271.248 387.260,272.349 386.939,273.700 387.153 C 273.865 387.179,274.000 386.930,274.000 386.600 C 274.000 386.167,274.444 386.000,275.600 386.000 C 276.756 386.000,277.200 385.833,277.200 385.400 C 277.200 384.995,277.605 384.800,278.443 384.800 C 279.387 384.800,279.630 384.655,279.454 384.196 C 279.270 383.716,279.466 383.635,280.411 383.802 C 281.298 383.958,281.600 383.858,281.600 383.406 C 281.600 382.966,282.038 382.800,283.200 382.800 C 284.356 382.800,284.800 382.633,284.800 382.200 C 284.800 381.686,285.797 381.378,286.900 381.553 C 287.065 381.579,287.200 381.330,287.200 381.000 C 287.200 380.595,287.605 380.400,288.443 380.400 C 289.304 380.400,289.624 380.239,289.484 379.875 C 289.339 379.496,289.603 379.398,290.441 379.521 C 291.311 379.648,291.600 379.530,291.600 379.045 C 291.600 378.640,291.939 378.400,292.511 378.400 C 293.012 378.400,293.727 378.044,294.100 377.608 C 294.525 377.112,295.031 376.914,295.455 377.076 C 295.929 377.258,296.040 377.188,295.825 376.841 C 295.628 376.522,295.820 376.267,296.366 376.125 C 296.862 375.995,297.169 375.633,297.106 375.252 C 297.026 374.757,297.266 374.631,298.101 374.729 C 298.821 374.813,299.286 374.640,299.443 374.231 C 299.576 373.887,299.825 373.692,299.996 373.798 C 300.168 373.904,300.397 373.654,300.505 373.242 C 300.653 372.676,300.959 372.541,301.751 372.693 C 302.533 372.842,302.800 372.729,302.800 372.247 C 302.800 371.824,303.146 371.600,303.800 371.600 C 304.422 371.600,304.800 371.373,304.800 371.000 C 304.800 370.670,304.993 370.400,305.229 370.400 C 305.464 370.400,305.919 370.138,306.240 369.817 C 306.561 369.496,307.070 369.329,307.371 369.444 C 307.672 369.560,308.055 369.434,308.221 369.165 C 308.427 368.832,308.357 368.779,308.000 369.000 C 307.654 369.214,307.573 369.167,307.762 368.862 C 307.919 368.608,308.480 368.400,309.010 368.400 C 309.567 368.400,310.155 368.059,310.406 367.589 C 310.645 367.143,311.011 366.883,311.220 367.012 C 311.429 367.142,311.600 366.967,311.600 366.624 C 311.600 366.235,311.956 366.000,312.544 366.000 C 313.084 366.000,313.809 365.572,314.239 365.000 C 314.652 364.450,315.217 364.000,315.495 364.000 C 315.773 364.000,316.000 363.730,316.000 363.400 C 316.000 362.995,316.405 362.800,317.243 362.800 C 318.183 362.800,318.430 362.654,318.255 362.200 C 318.099 361.792,318.277 361.600,318.813 361.600 C 319.246 361.600,319.600 361.422,319.600 361.205 C 319.600 360.477,320.911 359.268,321.468 359.481 C 322.014 359.691,324.800 357.091,324.800 356.372 C 324.800 356.167,325.319 356.000,325.953 356.000 C 326.789 356.000,327.167 355.768,327.326 355.160 C 327.468 354.619,327.722 354.428,328.041 354.625 C 328.392 354.843,328.457 354.725,328.263 354.221 C 328.070 353.718,328.150 353.572,328.537 353.720 C 329.090 353.933,330.400 352.720,330.400 351.995 C 330.400 351.778,330.670 351.600,331.000 351.600 C 331.330 351.600,331.600 351.395,331.600 351.144 C 331.600 350.472,332.868 349.627,333.900 349.613 C 334.524 349.604,334.800 349.359,334.800 348.813 C 334.800 348.277,334.992 348.099,335.400 348.255 C 335.780 348.401,336.000 348.250,336.000 347.843 C 336.000 347.489,336.270 347.200,336.600 347.200 C 336.930 347.200,337.200 346.930,337.200 346.600 C 337.200 346.270,337.489 346.000,337.843 346.000 C 338.250 346.000,338.401 345.780,338.255 345.400 C 338.112 345.027,338.258 344.800,338.641 344.800 C 339.349 344.800,340.400 343.861,340.400 343.229 C 340.400 342.993,340.670 342.800,341.000 342.800 C 341.330 342.800,341.600 342.530,341.600 342.200 C 341.600 341.870,341.870 341.600,342.200 341.600 C 342.530 341.600,342.800 341.330,342.800 341.000 C 342.800 340.670,342.993 340.400,343.229 340.400 C 343.861 340.400,344.800 339.349,344.800 338.641 C 344.800 338.258,345.027 338.112,345.400 338.255 C 345.780 338.401,346.000 338.250,346.000 337.843 C 346.000 337.489,346.270 337.200,346.600 337.200 C 346.930 337.200,347.200 336.930,347.200 336.600 C 347.200 336.270,347.489 336.000,347.843 336.000 C 348.250 336.000,348.401 335.780,348.255 335.400 C 348.099 334.992,348.277 334.800,348.813 334.800 C 349.359 334.800,349.604 334.524,349.613 333.900 C 349.627 332.868,350.472 331.600,351.144 331.600 C 351.395 331.600,351.600 331.330,351.600 331.000 C 351.600 330.670,351.778 330.400,351.995 330.400 C 352.720 330.400,353.933 329.090,353.720 328.537 C 353.572 328.150,353.718 328.070,354.221 328.263 C 354.725 328.457,354.843 328.392,354.625 328.041 C 354.428 327.722,354.619 327.468,355.160 327.326 C 355.768 327.167,356.000 326.789,356.000 325.953 C 356.000 325.319,356.167 324.800,356.372 324.800 C 357.091 324.800,359.691 322.014,359.481 321.468 C 359.268 320.911,360.477 319.600,361.205 319.600 C 361.422 319.600,361.600 319.246,361.600 318.813 C 361.600 318.277,361.792 318.099,362.200 318.255 C 362.654 318.430,362.800 318.183,362.800 317.243 C 362.800 316.405,362.995 316.000,363.400 316.000 C 363.730 316.000,364.000 315.773,364.000 315.495 C 364.000 315.217,364.450 314.652,365.000 314.239 C 365.572 313.809,366.000 313.084,366.000 312.544 C 366.000 311.956,366.235 311.600,366.624 311.600 C 366.967 311.600,367.142 311.429,367.012 311.220 C 366.883 311.011,367.143 310.645,367.589 310.406 C 368.059 310.155,368.400 309.567,368.400 309.010 C 368.400 308.480,368.608 307.919,368.862 307.762 C 369.167 307.573,369.214 307.654,369.000 308.000 C 368.779 308.357,368.832 308.427,369.165 308.221 C 369.434 308.055,369.560 307.672,369.444 307.371 C 369.329 307.070,369.496 306.561,369.817 306.240 C 370.138 305.919,370.400 305.464,370.400 305.229 C 370.400 304.993,370.670 304.800,371.000 304.800 C 371.373 304.800,371.600 304.422,371.600 303.800 C 371.600 303.146,371.824 302.800,372.247 302.800 C 372.729 302.800,372.842 302.533,372.693 301.751 C 372.541 300.959,372.676 300.653,373.242 300.505 C 373.654 300.397,373.904 300.168,373.798 299.996 C 373.692 299.825,373.887 299.576,374.231 299.443 C 374.640 299.286,374.813 298.821,374.729 298.101 C 374.631 297.266,374.757 297.026,375.252 297.106 C 375.633 297.169,375.995 296.862,376.125 296.366 C 376.267 295.820,376.522 295.628,376.841 295.825 C 377.188 296.040,377.258 295.929,377.076 295.455 C 376.914 295.031,377.112 294.525,377.608 294.100 C 378.044 293.727,378.400 293.012,378.400 292.511 C 378.400 291.939,378.640 291.600,379.045 291.600 C 379.530 291.600,379.648 291.311,379.521 290.441 C 379.398 289.603,379.496 289.339,379.875 289.484 C 380.239 289.624,380.400 289.304,380.400 288.443 C 380.400 287.605,380.595 287.200,381.000 287.200 C 381.330 287.200,381.579 287.065,381.553 286.900 C 381.378 285.797,381.686 284.800,382.200 284.800 C 382.633 284.800,382.800 284.356,382.800 283.200 C 382.800 282.038,382.966 281.600,383.406 281.600 C 383.858 281.600,383.958 281.298,383.802 280.411 C 383.635 279.466,383.716 279.270,384.196 279.454 C 384.655 279.630,384.800 279.387,384.800 278.443 C 384.800 277.605,384.995 277.200,385.400 277.200 C 385.833 277.200,386.000 276.756,386.000 275.600 C 386.000 274.444,386.167 274.000,386.600 274.000 C 386.930 274.000,387.179 273.865,387.153 273.700 C 386.939 272.349,387.260 271.248,387.806 271.458 C 388.268 271.635,388.397 271.417,388.350 270.545 C 388.253 268.776,388.356 268.400,388.938 268.400 C 389.304 268.400,389.477 267.861,389.477 266.721 C 389.477 265.797,389.685 264.972,389.938 264.887 C 390.192 264.803,390.400 264.028,390.400 263.167 C 390.400 262.041,390.569 261.600,391.000 261.600 C 391.431 261.600,391.600 261.160,391.600 260.043 C 391.600 259.095,391.814 258.403,392.147 258.276 C 392.448 258.160,392.698 257.556,392.704 256.933 C 392.726 254.401,392.820 254.000,393.397 254.000 C 393.842 254.000,393.977 253.573,393.929 252.323 C 393.890 251.343,394.058 250.581,394.331 250.490 C 394.629 250.390,394.800 249.326,394.800 247.567 C 394.800 245.374,394.924 244.800,395.400 244.800 C 395.861 244.800,396.000 244.289,396.000 242.600 C 396.000 240.911,396.139 240.400,396.600 240.400 C 397.083 240.400,397.200 239.778,397.200 237.200 C 397.200 234.622,397.317 234.000,397.800 234.000 C 398.130 234.000,398.400 233.809,398.400 233.576 C 398.400 233.343,398.202 233.275,397.960 233.425 C 397.651 233.615,397.635 233.473,397.904 232.948 C 398.115 232.537,398.324 231.042,398.367 229.627 C 398.420 227.940,398.644 226.907,399.019 226.627 C 399.473 226.288,399.571 225.111,399.495 220.900 C 399.442 217.956,399.560 215.599,399.760 215.600 C 399.972 215.600,400.005 207.103,399.839 194.900 C 399.520 171.291,399.576 172.722,398.981 173.216 C 398.471 173.639,398.506 173.859,398.364 169.300 C 398.288 166.877,398.120 166.000,397.731 166.000 C 397.334 166.000,397.200 165.192,397.200 162.800 C 397.200 160.222,397.083 159.600,396.600 159.600 C 396.139 159.600,396.000 159.089,396.000 157.400 C 396.000 155.711,395.861 155.200,395.400 155.200 C 394.924 155.200,394.800 154.626,394.800 152.433 C 394.800 150.723,394.626 149.609,394.345 149.515 C 394.095 149.432,393.891 148.591,393.891 147.646 C 393.891 146.632,393.761 146.140,393.573 146.444 C 393.193 147.058,392.785 145.697,392.655 143.383 C 392.607 142.543,392.351 141.784,392.084 141.695 C 391.815 141.605,391.600 140.837,391.600 139.967 C 391.600 138.841,391.431 138.400,391.000 138.400 C 390.565 138.400,390.400 137.953,390.400 136.776 C 390.400 135.796,390.242 135.251,390.000 135.400 C 389.609 135.642,389.443 134.667,389.580 132.933 C 389.618 132.457,389.330 131.888,388.940 131.670 C 388.426 131.383,388.259 130.866,388.332 129.788 C 388.412 128.592,388.312 128.348,387.816 128.539 C 387.334 128.723,387.200 128.472,387.200 127.387 C 387.200 126.540,387.018 126.039,386.734 126.100 C 386.256 126.203,385.511 123.667,385.856 123.110 C 385.961 122.939,385.767 122.800,385.424 122.800 C 385.020 122.800,384.800 122.436,384.800 121.771 C 384.800 121.206,384.538 120.481,384.217 120.160 C 383.896 119.839,383.738 119.305,383.866 118.972 C 384.011 118.596,383.896 118.411,383.562 118.484 C 383.228 118.556,382.928 118.072,382.765 117.200 C 382.622 116.430,382.479 116.070,382.447 116.400 C 382.326 117.633,381.612 115.850,381.606 114.300 C 381.602 113.267,381.421 112.800,381.027 112.800 C 380.698 112.800,380.399 112.330,380.327 111.700 C 380.257 111.095,380.008 110.634,379.773 110.676 C 379.519 110.721,379.416 110.275,379.518 109.576 C 379.648 108.689,379.532 108.400,379.045 108.400 C 378.653 108.400,378.400 108.065,378.400 107.546 C 378.400 107.076,377.922 106.249,377.338 105.708 C 376.482 104.914,376.385 104.655,376.838 104.368 C 377.291 104.082,377.264 104.011,376.700 104.006 C 376.315 104.003,376.000 103.711,376.000 103.357 C 376.000 102.950,375.780 102.799,375.400 102.945 C 374.859 103.152,374.562 102.306,374.753 101.100 C 374.779 100.935,374.620 100.800,374.400 100.800 C 374.180 100.800,374.000 100.530,374.000 100.200 C 374.000 99.870,373.730 99.600,373.400 99.600 C 373.025 99.600,372.800 99.221,372.800 98.587 C 372.800 98.031,372.530 97.471,372.200 97.345 C 371.870 97.218,371.600 96.794,371.600 96.403 C 371.600 96.012,371.150 95.397,370.600 95.037 C 369.851 94.546,369.600 94.033,369.600 92.991 C 369.600 92.226,369.409 91.600,369.176 91.600 C 368.943 91.600,368.880 91.825,369.035 92.100 C 369.236 92.457,369.187 92.480,368.861 92.182 C 368.610 91.953,368.364 91.274,368.314 90.673 C 368.256 89.974,368.040 89.653,367.712 89.778 C 367.403 89.897,367.200 89.663,367.200 89.187 C 367.200 88.754,366.979 88.445,366.709 88.500 C 366.440 88.555,366.155 88.150,366.076 87.600 C 365.998 87.050,365.499 86.219,364.967 85.753 C 364.435 85.288,364.000 84.703,364.000 84.453 C 364.000 84.204,363.730 84.000,363.400 84.000 C 362.995 84.000,362.800 83.595,362.800 82.757 C 362.800 81.817,362.654 81.570,362.200 81.745 C 361.785 81.904,361.600 81.718,361.600 81.145 C 361.600 80.571,361.415 80.386,361.000 80.545 C 360.648 80.680,360.400 80.550,360.400 80.230 C 360.400 79.931,360.152 79.591,359.849 79.474 C 359.500 79.340,359.371 78.887,359.496 78.232 C 359.642 77.467,359.526 77.200,359.047 77.200 C 358.691 77.200,358.400 76.919,358.400 76.576 C 358.400 76.233,358.219 76.065,357.997 76.202 C 357.776 76.339,357.486 76.169,357.354 75.825 C 357.222 75.481,356.864 75.200,356.557 75.200 C 356.205 75.200,356.000 74.759,356.000 74.000 C 356.000 73.200,355.800 72.800,355.400 72.800 C 355.070 72.800,354.800 72.622,354.800 72.405 C 354.800 71.790,353.496 70.417,353.129 70.644 C 352.948 70.756,352.800 70.567,352.800 70.224 C 352.800 69.881,352.530 69.600,352.200 69.600 C 351.870 69.600,351.600 69.330,351.600 69.000 C 351.600 68.670,351.349 68.400,351.043 68.400 C 350.736 68.400,350.378 68.119,350.246 67.775 C 350.114 67.431,349.857 67.241,349.675 67.354 C 349.493 67.466,349.423 67.027,349.518 66.379 C 349.648 65.489,349.532 65.200,349.045 65.200 C 348.690 65.200,348.400 64.919,348.400 64.576 C 348.400 64.233,348.240 64.051,348.045 64.172 C 347.580 64.459,346.719 63.415,347.103 63.030 C 347.267 62.867,347.220 62.770,347.000 62.814 C 346.081 63.000,345.639 62.763,345.855 62.200 C 346.001 61.820,345.850 61.600,345.443 61.600 C 345.089 61.600,344.800 61.319,344.800 60.976 C 344.800 60.633,344.620 60.464,344.400 60.600 C 344.180 60.736,344.000 60.567,344.000 60.224 C 344.000 59.870,343.659 59.600,343.213 59.600 C 342.643 59.600,342.496 59.416,342.680 58.936 C 342.879 58.417,342.755 58.318,342.118 58.485 C 341.453 58.659,341.341 58.548,341.514 57.887 C 341.646 57.382,341.568 57.173,341.308 57.333 C 341.079 57.475,340.668 57.323,340.396 56.996 C 340.124 56.668,340.027 56.400,340.180 56.400 C 340.332 56.400,340.187 56.130,339.857 55.800 C 339.527 55.470,339.064 55.200,338.829 55.200 C 338.593 55.200,338.400 54.951,338.400 54.647 C 338.400 54.342,338.022 53.994,337.560 53.874 C 337.084 53.749,336.837 53.464,336.989 53.217 C 337.138 52.977,337.111 52.806,336.930 52.837 C 336.008 52.998,335.536 52.744,335.745 52.200 C 335.885 51.835,335.745 51.600,335.387 51.600 C 335.064 51.600,334.800 51.330,334.800 51.000 C 334.800 50.660,334.442 50.400,333.974 50.400 C 332.810 50.400,331.600 49.679,331.600 48.986 C 331.600 48.664,331.330 48.400,331.000 48.400 C 330.670 48.400,330.400 48.111,330.400 47.757 C 330.400 47.341,330.182 47.198,329.779 47.353 C 329.399 47.499,329.260 47.426,329.422 47.165 C 329.703 46.711,328.315 45.200,327.617 45.200 C 327.388 45.200,327.200 44.930,327.200 44.600 C 327.200 44.200,326.800 44.000,326.000 44.000 C 325.340 44.000,324.800 43.811,324.800 43.580 C 324.800 42.616,322.162 40.433,321.277 40.664 C 320.641 40.830,320.400 40.715,320.400 40.247 C 320.400 39.891,320.220 39.600,320.000 39.600 C 319.780 39.600,319.600 39.309,319.600 38.953 C 319.600 38.518,319.355 38.371,318.851 38.503 C 318.257 38.658,318.146 38.529,318.315 37.882 C 318.482 37.245,318.383 37.121,317.864 37.320 C 316.986 37.657,316.000 37.254,316.000 36.557 C 316.000 36.251,315.807 36.000,315.571 36.000 C 315.018 36.000,314.000 34.982,314.000 34.429 C 314.000 34.193,313.460 34.000,312.800 34.000 C 312.011 34.000,311.600 33.799,311.600 33.413 C 311.600 33.080,311.363 32.916,311.053 33.035 C 310.728 33.160,310.418 32.911,310.290 32.423 C 310.159 31.923,309.746 31.600,309.237 31.600 C 308.777 31.600,308.400 31.348,308.400 31.040 C 308.400 30.666,308.002 30.507,307.200 30.563 C 306.436 30.616,306.000 30.456,306.000 30.123 C 306.000 29.835,305.730 29.600,305.400 29.600 C 305.070 29.600,304.800 29.310,304.800 28.955 C 304.800 28.472,304.511 28.352,303.657 28.477 C 302.807 28.602,302.526 28.486,302.557 28.022 C 302.584 27.627,302.199 27.354,301.500 27.273 C 300.831 27.196,300.400 26.906,300.400 26.531 C 300.400 26.149,300.173 26.002,299.805 26.143 C 299.461 26.275,299.250 26.166,299.305 25.886 C 299.360 25.602,298.847 25.347,298.068 25.272 C 297.155 25.185,296.800 24.977,296.940 24.612 C 297.058 24.305,296.800 23.989,296.332 23.866 C 295.885 23.749,295.615 23.499,295.732 23.310 C 295.849 23.121,295.579 22.939,295.132 22.905 C 294.686 22.871,294.095 22.536,293.820 22.160 C 293.509 21.734,293.008 21.557,292.494 21.691 C 291.911 21.844,291.611 21.686,291.472 21.154 C 291.358 20.718,290.921 20.400,290.437 20.400 C 289.977 20.400,289.600 20.220,289.600 20.000 C 289.600 19.780,289.060 19.600,288.400 19.600 C 287.600 19.600,287.200 19.400,287.200 19.000 C 287.200 18.670,287.065 18.421,286.900 18.447 C 285.751 18.629,284.800 18.316,284.800 17.756 C 284.800 17.251,284.486 17.149,283.343 17.283 C 282.164 17.420,281.849 17.307,281.687 16.690 C 281.543 16.138,281.228 15.978,280.544 16.109 C 279.997 16.213,279.600 16.097,279.600 15.832 C 279.600 15.580,279.105 15.335,278.500 15.286 C 277.895 15.238,277.200 14.929,276.956 14.599 C 276.712 14.270,275.947 14.000,275.256 14.000 C 274.406 14.000,274.000 13.806,274.000 13.400 C 274.000 12.982,273.579 12.800,272.613 12.800 C 271.528 12.800,271.277 12.666,271.461 12.184 C 271.651 11.690,271.412 11.588,270.253 11.666 C 269.209 11.736,268.643 11.546,268.216 10.982 C 267.766 10.386,267.621 10.343,267.607 10.800 C 267.595 11.154,267.467 11.236,267.294 11.000 C 267.132 10.780,266.460 10.584,265.800 10.564 C 265.084 10.543,264.643 10.333,264.706 10.045 C 264.765 9.779,264.585 9.592,264.306 9.628 C 262.863 9.818,261.211 9.550,261.300 9.142 C 261.355 8.889,260.775 8.611,260.000 8.519 C 259.230 8.428,258.395 8.088,258.145 7.762 C 257.895 7.436,257.535 7.198,257.345 7.232 C 255.762 7.518,253.999 7.133,253.994 6.500 C 253.989 5.902,253.931 5.887,253.600 6.400 C 253.332 6.815,253.210 6.843,253.206 6.491 C 253.202 6.146,252.746 6.031,251.800 6.135 C 250.810 6.245,250.400 6.130,250.400 5.745 C 250.400 5.337,249.696 5.200,247.600 5.200 C 245.378 5.200,244.800 5.076,244.800 4.600 C 244.800 4.139,244.289 4.000,242.600 4.000 C 241.014 4.000,240.400 3.849,240.400 3.457 C 240.400 3.087,239.859 2.910,238.700 2.902 C 234.456 2.871,234.000 2.803,234.000 2.200 C 234.000 1.472,232.765 1.410,232.021 2.100 C 231.725 2.375,231.593 2.403,231.727 2.161 C 231.890 1.869,231.209 1.698,229.686 1.649 C 228.429 1.609,227.340 1.401,227.267 1.188 C 227.193 0.975,226.958 0.800,226.743 0.800 C 226.528 0.800,226.467 1.025,226.606 1.300 C 226.745 1.575,226.620 1.510,226.326 1.156 C 225.873 0.608,225.034 0.537,220.697 0.683 C 217.242 0.799,215.600 0.717,215.600 0.427 C 215.600 0.131,210.731 0.000,199.776 0.000 C 188.625 0.000,184.031 0.127,184.218 0.429 M215.400 3.199 C 222.064 3.675,232.099 4.803,233.000 5.177 C 233.440 5.360,234.970 5.713,236.400 5.961 C 244.703 7.404,253.630 9.654,259.600 11.809 C 260.370 12.087,261.810 12.527,262.800 12.787 C 263.790 13.047,265.110 13.517,265.732 13.830 C 266.355 14.144,267.214 14.400,267.640 14.400 C 268.066 14.400,269.427 14.940,270.664 15.600 C 271.901 16.260,273.145 16.800,273.428 16.800 C 273.712 16.800,275.111 17.340,276.537 18.000 C 277.963 18.660,279.327 19.200,279.569 19.200 C 280.227 19.200,296.032 27.175,296.703 27.846 C 297.022 28.165,298.007 28.795,298.891 29.247 C 299.776 29.698,301.224 30.592,302.110 31.233 C 302.995 31.875,303.875 32.400,304.065 32.400 C 304.254 32.400,305.464 33.120,306.753 34.000 C 308.042 34.880,309.274 35.600,309.490 35.600 C 309.706 35.600,310.350 36.005,310.921 36.500 C 311.491 36.995,313.059 38.210,314.405 39.200 C 315.750 40.190,317.827 41.765,319.020 42.700 C 320.213 43.635,321.311 44.400,321.461 44.400 C 321.610 44.400,322.018 44.669,322.366 44.998 C 322.715 45.328,323.799 46.273,324.776 47.098 C 332.404 53.548,338.659 59.425,343.667 64.847 C 350.860 72.633,353.907 76.220,357.387 81.000 C 358.348 82.320,359.464 83.780,359.867 84.245 C 360.639 85.134,361.092 85.775,362.449 87.900 C 362.905 88.615,363.429 89.200,363.613 89.200 C 363.796 89.200,364.071 89.605,364.224 90.100 C 364.377 90.595,365.290 92.179,366.251 93.621 C 367.213 95.062,368.000 96.388,368.000 96.567 C 368.000 96.746,368.599 97.727,369.332 98.746 C 370.064 99.766,371.067 101.410,371.561 102.400 C 372.055 103.390,372.671 104.380,372.929 104.600 C 373.484 105.072,381.226 120.803,381.211 121.427 C 381.205 121.662,381.740 122.909,382.400 124.200 C 383.060 125.491,383.600 126.802,383.600 127.115 C 383.600 127.428,384.050 128.580,384.600 129.675 C 385.150 130.770,385.600 132.065,385.600 132.553 C 385.600 133.041,385.794 133.634,386.031 133.871 C 386.268 134.108,386.612 134.909,386.796 135.651 C 387.110 136.919,387.722 138.775,388.430 140.600 C 388.600 141.040,388.829 141.850,388.937 142.400 C 389.046 142.950,389.441 144.210,389.816 145.200 C 390.561 147.170,391.864 152.638,393.437 160.400 C 393.995 163.150,394.607 165.940,394.798 166.600 C 394.989 167.260,395.341 169.870,395.581 172.400 C 395.821 174.930,396.196 178.080,396.413 179.400 C 397.571 186.423,397.557 212.676,396.391 220.800 C 396.154 222.450,395.715 225.870,395.416 228.400 C 394.802 233.588,393.539 240.601,392.658 243.717 C 392.333 244.862,391.765 247.240,391.394 249.000 C 390.813 251.760,389.376 256.772,388.413 259.400 C 387.611 261.589,387.099 263.112,386.800 264.200 C 386.276 266.106,385.558 268.039,384.542 270.275 C 384.024 271.416,383.600 272.634,383.600 272.982 C 383.600 273.330,383.085 274.581,382.455 275.760 C 381.826 276.940,381.181 278.422,381.024 279.053 C 380.586 280.806,373.212 295.461,372.143 296.705 C 371.625 297.307,371.201 297.998,371.200 298.240 C 371.200 298.482,370.624 299.472,369.921 300.440 C 369.217 301.408,368.139 303.235,367.524 304.500 C 366.909 305.765,366.256 306.800,366.071 306.800 C 365.887 306.800,365.315 307.700,364.800 308.800 C 364.285 309.900,363.744 310.800,363.599 310.800 C 363.454 310.800,362.728 311.737,361.986 312.881 C 361.244 314.026,360.394 315.241,360.095 315.581 C 359.797 315.922,358.674 317.370,357.600 318.800 C 356.526 320.230,355.366 321.715,355.024 322.100 C 354.681 322.485,354.400 322.949,354.400 323.130 C 354.400 323.312,353.950 323.883,353.400 324.400 C 352.850 324.917,352.400 325.510,352.400 325.719 C 352.400 325.927,351.365 327.146,350.100 328.427 C 348.835 329.708,346.360 332.334,344.600 334.263 C 340.582 338.666,338.666 340.582,334.263 344.600 C 332.334 346.360,329.708 348.835,328.427 350.100 C 327.146 351.365,325.927 352.400,325.719 352.400 C 325.510 352.400,324.917 352.850,324.400 353.400 C 323.883 353.950,323.312 354.400,323.130 354.400 C 322.949 354.400,322.485 354.681,322.100 355.024 C 321.715 355.366,320.230 356.526,318.800 357.600 C 317.370 358.674,315.922 359.797,315.581 360.095 C 315.241 360.394,314.026 361.244,312.881 361.986 C 311.737 362.728,310.800 363.454,310.800 363.599 C 310.800 363.744,309.900 364.285,308.800 364.800 C 307.700 365.315,306.800 365.887,306.800 366.071 C 306.800 366.256,305.765 366.909,304.500 367.524 C 303.235 368.139,301.408 369.217,300.440 369.921 C 299.472 370.624,298.482 371.200,298.240 371.200 C 297.998 371.201,297.307 371.625,296.705 372.143 C 295.461 373.212,280.806 380.586,279.053 381.024 C 278.422 381.181,276.940 381.826,275.760 382.455 C 274.581 383.085,273.330 383.600,272.982 383.600 C 272.634 383.600,271.416 384.024,270.275 384.542 C 268.039 385.558,266.106 386.276,264.200 386.800 C 263.112 387.099,261.589 387.611,259.400 388.413 C 256.772 389.376,251.760 390.813,249.000 391.394 C 247.240 391.765,244.862 392.333,243.717 392.658 C 240.601 393.539,233.588 394.802,228.400 395.416 C 225.870 395.715,222.450 396.154,220.800 396.391 C 212.676 397.557,186.423 397.571,179.400 396.413 C 178.080 396.196,174.930 395.821,172.400 395.581 C 169.870 395.341,167.260 394.989,166.600 394.798 C 165.940 394.607,163.150 393.995,160.400 393.437 C 152.638 391.864,147.170 390.561,145.200 389.816 C 144.210 389.441,142.950 389.046,142.400 388.937 C 141.850 388.829,141.040 388.600,140.600 388.430 C 138.775 387.722,136.919 387.110,135.651 386.796 C 134.909 386.612,134.108 386.268,133.871 386.031 C 133.634 385.794,133.041 385.600,132.553 385.600 C 132.065 385.600,130.770 385.150,129.675 384.600 C 128.580 384.050,127.428 383.600,127.115 383.600 C 126.802 383.600,125.491 383.060,124.200 382.400 C 122.909 381.740,121.662 381.205,121.427 381.211 C 120.803 381.226,105.072 373.484,104.600 372.929 C 104.380 372.671,103.390 372.055,102.400 371.561 C 101.410 371.067,99.766 370.064,98.746 369.332 C 97.727 368.599,96.746 368.000,96.567 368.000 C 96.388 368.000,95.062 367.213,93.621 366.251 C 92.179 365.290,90.595 364.377,90.100 364.224 C 89.605 364.071,89.200 363.796,89.200 363.613 C 89.200 363.429,88.615 362.905,87.900 362.449 C 85.775 361.092,85.134 360.639,84.245 359.867 C 83.780 359.464,82.320 358.348,81.000 357.387 C 76.220 353.907,72.633 350.860,64.847 343.667 C 59.425 338.659,53.548 332.404,47.098 324.776 C 46.273 323.799,45.328 322.715,44.998 322.366 C 44.669 322.018,44.400 321.610,44.400 321.461 C 44.400 321.311,43.635 320.213,42.700 319.020 C 41.765 317.827,40.190 315.750,39.200 314.405 C 38.210 313.059,36.995 311.491,36.500 310.921 C 36.005 310.350,35.600 309.706,35.600 309.490 C 35.600 309.274,34.880 308.042,34.000 306.753 C 33.120 305.464,32.400 304.254,32.400 304.065 C 32.400 303.875,31.875 302.995,31.233 302.110 C 30.592 301.224,29.698 299.776,29.247 298.891 C 28.795 298.007,28.165 297.022,27.846 296.703 C 27.175 296.032,19.200 280.227,19.200 279.569 C 19.200 279.327,18.660 277.963,18.000 276.537 C 17.340 275.111,16.800 273.712,16.800 273.428 C 16.800 273.145,16.260 271.901,15.600 270.664 C 14.940 269.427,14.400 268.066,14.400 267.640 C 14.400 267.214,14.144 266.355,13.830 265.732 C 13.517 265.110,13.047 263.790,12.787 262.800 C 12.527 261.810,12.087 260.370,11.809 259.600 C 9.654 253.630,7.404 244.703,5.961 236.400 C 5.713 234.970,5.360 233.440,5.177 233.000 C 4.842 232.192,3.811 223.328,3.153 215.600 C 2.691 210.165,2.693 190.275,3.157 184.600 C 3.704 177.905,4.825 167.874,5.102 167.200 C 5.330 166.645,5.695 164.891,6.766 159.200 C 7.457 155.533,8.894 149.949,10.883 143.200 C 11.110 142.430,11.544 141.209,11.848 140.486 C 12.152 139.764,12.400 138.830,12.400 138.410 C 12.400 137.990,12.580 137.536,12.800 137.400 C 13.020 137.264,13.200 136.658,13.200 136.053 C 13.200 135.448,13.464 134.604,13.787 134.176 C 14.110 133.749,14.375 133.040,14.376 132.600 C 14.377 132.160,14.905 130.720,15.549 129.400 C 16.193 128.080,16.900 126.460,17.120 125.800 C 18.436 121.842,26.419 105.083,27.225 104.584 C 27.442 104.450,28.248 103.094,29.015 101.570 C 29.782 100.047,30.543 98.797,30.705 98.794 C 30.867 98.790,31.440 97.890,31.979 96.794 C 32.517 95.697,33.073 94.800,33.213 94.800 C 33.354 94.800,33.984 93.765,34.613 92.500 C 35.243 91.235,36.091 89.750,36.499 89.200 C 38.751 86.161,41.261 82.921,41.793 82.366 C 42.127 82.018,42.403 81.568,42.407 81.366 C 42.411 81.165,42.861 80.576,43.407 80.058 C 43.953 79.540,44.400 78.905,44.400 78.647 C 44.400 78.389,44.715 77.886,45.100 77.529 C 45.485 77.173,46.214 76.368,46.720 75.740 C 53.088 67.845,67.845 53.088,75.740 46.720 C 76.368 46.214,77.173 45.485,77.529 45.100 C 77.886 44.715,78.389 44.400,78.647 44.400 C 78.905 44.400,79.540 43.953,80.058 43.407 C 80.576 42.861,81.165 42.411,81.366 42.407 C 81.568 42.403,82.018 42.127,82.366 41.793 C 82.921 41.261,86.161 38.751,89.200 36.499 C 89.750 36.091,91.235 35.243,92.500 34.613 C 93.765 33.984,94.800 33.354,94.800 33.213 C 94.800 33.073,95.697 32.517,96.794 31.979 C 97.890 31.440,98.790 30.867,98.794 30.705 C 98.797 30.543,100.047 29.782,101.570 29.015 C 103.094 28.248,104.450 27.442,104.584 27.225 C 105.083 26.419,121.842 18.436,125.800 17.120 C 126.460 16.900,128.080 16.193,129.400 15.549 C 130.720 14.905,132.160 14.377,132.600 14.376 C 133.040 14.375,133.749 14.110,134.176 13.787 C 134.604 13.464,135.448 13.200,136.053 13.200 C 136.658 13.200,137.264 13.020,137.400 12.800 C 137.536 12.580,137.990 12.400,138.410 12.400 C 138.830 12.400,139.764 12.145,140.486 11.834 C 141.620 11.345,143.775 10.675,149.000 9.188 C 151.282 8.539,157.008 7.179,159.200 6.766 C 164.892 5.695,166.645 5.330,167.200 5.102 C 167.530 4.966,169.960 4.659,172.600 4.420 C 175.240 4.180,178.480 3.796,179.800 3.566 C 185.510 2.572,203.962 2.381,215.400 3.199 " stroke="none" fill="#acacac" fill-rule="evenodd"></path><path id="path2" d="" stroke="none" fill="#b4b8b0" fill-rule="evenodd"></path><path id="path3" d="" stroke="none" fill="#b4b8b0" fill-rule="evenodd"></path><path id="path4" d="" stroke="none" fill="#b4b8b0" fill-rule="evenodd"></path></g></svg>